<?xml version="1.0" encoding="UTF-8" standalone="no"?>
<svg xmlns="http://www.w3.org/2000/svg" viewBox="0 0 1897 1214" width="1897" height="1214">
  <title>Social Coordination Lab</title>
  <defs>
    <linearGradient id="logoGradient" x1="45" y1="0" x2="1852" y2="0" gradientUnits="userSpaceOnUse">
      <stop offset="0%" stop-color="#1C3A72"/>
      <stop offset="100%" stop-color="#1CAABC"/>
    </linearGradient>
  </defs>
  <!-- Text -->
  <g fill="url(#logoGradient)">
    <path
       d="m 92.791183,202.148 q -13.783,0 -24.165,-4.833 -10.203,-5.012 -15.931,-13.962 -5.728,-8.95 -5.907,-20.943 h 18.795 q 0.179,6.802 3.043,12.53 3.043,5.549 9.129,8.95 6.086,3.222 15.036,3.222 7.338997,0 12.887997,-2.148 5.549,-2.148 8.592,-6.265 3.222,-4.296 3.222,-10.74 0,-6.444 -3.043,-10.74 -2.864,-4.296 -8.055,-7.16 -5.191,-2.864 -11.455997,-5.012 -6.265,-2.148 -12.888,-4.475 -15.931,-5.549 -23.807,-13.604 -7.697,-8.234 -7.697,-20.764 0,-9.845 5.012,-17.363 5.012,-7.697 14.141,-11.993 9.129,-4.296 21.301,-4.296 12.171997,0 21.300997,4.475 9.129,4.475 14.32,12.351 5.191,7.876 5.191,18.437 h -18.795 q -0.179,-6.086 -2.864,-10.561 -2.685,-4.654 -7.697,-7.339 -5.011997,-2.685 -12.529997,-2.685 -5.907,0 -10.74,1.79 -4.833,1.79 -7.697,5.728 -2.685,3.759 -2.685,10.024 0,5.191 2.148,8.771 2.327,3.58 6.623,6.265 4.475,2.506 10.74,5.012 6.265,2.327 14.319997,5.37 9.308,3.222 16.647,7.697 7.518,4.296 11.814,11.098 4.475,6.623 4.475,17.184 0,9.308 -4.833,17.542 -4.833,8.234 -14.32,13.425 -9.487,5.012 -23.627997,5.012 z"
       id="path10" />
    <path
       d="m 189.0931,202.148 q -12.53,0 -22.733,-5.728 -10.024,-5.907 -15.931,-16.289 -5.907,-10.561 -5.907,-24.523 0,-13.962 5.907,-24.344 6.086,-10.561 16.11,-16.289 10.203,-5.907 22.912,-5.907 12.709,0 22.733,5.907 10.203,5.728 15.931,16.289 5.907,10.382 5.907,24.344 0,13.962 -5.907,24.523 -5.907,10.382 -16.11,16.289 -10.203,5.728 -22.912,5.728 z m 0,-14.32 q 7.16,0 13.067,-3.58 6.086,-3.58 9.845,-10.561 3.759,-7.16 3.759,-18.079 0,-10.919 -3.759,-18.079 -3.58,-7.16 -9.666,-10.561 -5.907,-3.58 -12.888,-3.58 -6.981,0 -13.067,3.58 -6.086,3.401 -9.845,10.561 -3.759,7.16 -3.759,18.079 0,10.919 3.759,18.079 3.759,6.981 9.666,10.561 6.086,3.58 12.888,3.58 z"
       id="path12" />
    <path
       d="m 288.25896,202.148 q -14.141,0 -24.344,-5.907 -10.024,-5.907 -15.573,-16.289 -5.37,-10.561 -5.37,-24.344 0,-13.783 5.728,-24.165 5.907,-10.561 16.11,-16.468 10.382,-5.907 23.449,-5.907 16.289,0 27.387,8.592 11.098,8.413 13.962,22.733 h -18.616 q -1.611,-8.234 -8.055,-12.53 -6.265,-4.475 -14.857,-4.475 -7.16,0 -13.246,3.58 -6.086,3.58 -9.845,10.74 -3.759,7.16 -3.759,17.9 0,7.697 1.969,13.604 2.148,5.728 5.728,9.845 3.58,3.938 8.413,6.086 5.012,1.969 10.74,1.969 5.728,0 10.382,-1.79 4.833,-1.969 8.055,-5.728 3.401,-3.759 4.475,-8.771 h 18.616 q -2.864,14.141 -13.962,22.733 -11.098,8.592 -27.387,8.592 z"
       id="path14" />
    <path
       d="m 344.28602,200 v -88.784 h 17.9 V 200 Z m 8.95,-104.536 q -5.191,0 -8.592,-3.222 -3.401,-3.222 -3.401,-8.234 0,-4.833 3.401,-8.055 3.401,-3.401 8.592,-3.401 5.012,0 8.413,3.401 3.401,3.222 3.401,8.055 0,4.833 -3.401,8.234 -3.401,3.222 -8.413,3.222 z"
       id="path16" />
    <path
       d="m 409.08391,202.148 q -10.561,0 -17.721,-3.58 -6.981,-3.759 -10.382,-10.024 -3.401,-6.265 -3.401,-13.604 0,-8.771 4.475,-15.036 4.654,-6.265 13.246,-9.666 8.771,-3.401 20.943,-3.401 h 23.449 q 0,-8.055 -2.506,-13.246 -2.327,-5.37 -6.981,-7.876 -4.654,-2.685 -11.277,-2.685 -8.234,0 -14.32,4.117 -5.907,3.938 -7.16,12.53 h -17.9 q 1.074,-9.845 6.265,-16.468 5.37,-6.802 13.962,-10.382 8.592,-3.759 19.153,-3.759 12.709,0 21.301,4.475 8.771,4.475 13.067,12.709 4.296,8.055 4.296,19.153 V 200 h -14.857 l -1.79,-14.857 h -0.716 q -2.506,4.296 -5.907,7.518 -3.401,3.043 -7.339,5.191 -3.759,2.148 -8.413,3.222 -4.475,1.074 -9.487,1.074 z m 4.296,-14.499 q 6.265,0 10.919,-2.327 4.833,-2.327 8.055,-6.265 3.401,-4.117 5.012,-9.129 1.79,-5.012 1.969,-10.382 v 0 h -21.301 q -7.876,0 -12.709,1.79 -4.654,1.79 -6.802,5.012 -2.148,3.222 -2.148,7.518 0,4.117 1.969,7.339 2.148,3.043 5.907,4.833 3.938,1.611 9.129,1.611 z"
       id="path18" />
    <path
       d="M 471.91277,200 V 74.7 h 17.9 V 200 Z"
       id="path20" />
    <path
       d="m 600.07698,202.148 q -18.616,0 -32.22,-8.055 -13.425,-8.234 -20.764,-22.733 -7.16,-14.678 -7.16,-34.01 0,-19.153 7.339,-33.831 7.339,-14.678 20.764,-22.733 13.425,-8.234 32.041,-8.234 22.017,0 35.8,10.561 13.783,10.561 17.542,29.714 h -19.869 q -2.685,-11.098 -11.098,-17.542 -8.234,-6.623 -22.375,-6.623 -12.888,0 -22.375,5.907 -9.308,5.907 -14.499,16.826 -5.012,10.919 -5.012,25.955 0,15.215 5.012,26.134 5.191,10.919 14.499,16.826 9.487,5.728 22.375,5.728 14.141,0 22.733,-6.265 8.592,-6.444 11.277,-17.184 h 19.332 q -3.759,18.616 -17.542,29.177 -13.783,10.382 -35.8,10.382 z"
       id="path22" />
    <path
       d="m 708.73009,202.148 q -12.53,0 -22.733,-5.728 -10.024,-5.907 -15.931,-16.289 -5.907,-10.561 -5.907,-24.523 0,-13.962 5.907,-24.344 6.086,-10.561 16.11,-16.289 10.203,-5.907 22.912,-5.907 12.709,0 22.733,5.907 10.203,5.728 15.931,16.289 5.907,10.382 5.907,24.344 0,13.962 -5.907,24.523 -5.907,10.382 -16.11,16.289 -10.203,5.728 -22.912,5.728 z m 0,-14.32 q 7.16,0 13.067,-3.58 6.086,-3.58 9.845,-10.561 3.759,-7.16 3.759,-18.079 0,-10.919 -3.759,-18.079 -3.58,-7.16 -9.666,-10.561 -5.907,-3.58 -12.888,-3.58 -6.981,0 -13.067,3.58 -6.086,3.401 -9.845,10.561 -3.759,7.16 -3.759,18.079 0,10.919 3.759,18.079 3.759,6.981 9.666,10.561 6.086,3.58 12.888,3.58 z"
       id="path24" />
    <path
       d="m 807.17992,202.148 q -12.53,0 -22.733,-5.728 -10.024,-5.907 -15.931,-16.289 -5.907,-10.561 -5.907,-24.523 0,-13.962 5.907,-24.344 6.086,-10.561 16.11,-16.289 10.203,-5.907 22.912,-5.907 12.709,0 22.733,5.907 10.203,5.728 15.931,16.289 5.907,10.382 5.907,24.344 0,13.962 -5.907,24.523 -5.907,10.382 -16.11,16.289 -10.203,5.728 -22.912,5.728 z m 0,-14.32 q 7.16,0 13.067,-3.58 6.086,-3.58 9.845,-10.561 3.759,-7.16 3.759,-18.079 0,-10.919 -3.759,-18.079 -3.58,-7.16 -9.666,-10.561 -5.907,-3.58 -12.888,-3.58 -6.981,0 -13.067,3.58 -6.086,3.401 -9.845,10.561 -3.759,7.16 -3.759,18.079 0,10.919 3.759,18.079 3.759,6.981 9.666,10.561 6.086,3.58 12.888,3.58 z"
       id="path26" />
    <path
       d="m 863.74381,200 v -88.784 h 15.573 l 1.611,19.332 h 0.716 q 4.296,-9.487 8.592,-13.962 4.475,-4.654 10.203,-6.086 5.907,-1.432 13.962,-1.432 v 18.795 h -4.654 q -6.981,0 -12.351,1.79 -5.191,1.611 -8.771,5.012 -3.401,3.401 -5.191,8.771 -1.79,5.191 -1.79,12.351 V 200 Z"
       id="path28" />
    <path
       d="m 958.61353,202.148 q -12.709,0 -22.196,-6.086 -9.308,-6.086 -14.499,-16.647 -5.012,-10.561 -5.012,-23.807 0,-13.246 5.012,-23.807 5.191,-10.561 14.857,-16.647 9.845,-6.086 23.449,-6.086 11.814,0 19.69,4.833 7.876,4.833 12.172,10.919 V 74.7 h 17.89997 V 200 h -15.03597 l -1.253,-16.647 h -0.716 q -3.759,6.265 -8.95,10.382 -5.191,4.117 -11.635,6.265 -6.265,2.148 -13.783,2.148 z m 4.833,-15.215 q 8.592,0 15.036,-3.938 6.444,-3.938 9.845,-10.919 3.58,-7.16 3.58,-16.468 0,-9.487 -3.58,-16.468 -3.401,-6.981 -9.845,-10.919 -6.444,-3.938 -15.215,-3.938 -8.592,0 -15.036,3.938 -6.265,3.938 -9.845,11.098 -3.401,6.981 -3.401,16.289 0,9.308 3.401,16.468 3.58,6.981 9.845,10.919 6.444,3.938 15.215,3.938 z"
       id="path30" />
    <path
       d="m 1028.2445,200 v -88.784 h 17.9 V 200 Z m 8.95,-104.536 q -5.191,0 -8.592,-3.222 -3.401,-3.222 -3.401,-8.234 0,-4.833 3.401,-8.055 3.401,-3.401 8.592,-3.401 5.012,0 8.413,3.401 3.401,3.222 3.401,8.055 0,4.833 -3.401,8.234 -3.401,3.222 -8.413,3.222 z"
       id="path32" />
    <path
       d="m 1063.3284,200 v -88.784 h 15.573 l 1.611,14.141 h 0.716 q 4.475,-7.518 11.993,-11.814 7.518,-4.475 18.258,-4.475 10.382,0 18.079,4.475 7.697,4.296 11.814,13.067 4.296,8.771 4.296,22.196 V 200 h -17.9 v -49.404 q 0,-12.888 -5.549,-19.511 -5.37,-6.802 -16.11,-6.802 -7.16,0 -12.888,3.58 -5.549,3.401 -8.771,10.024 -3.222,6.623 -3.222,16.11 V 200 Z"
       id="path34" />
    <path
       d="m 1188.8074,202.148 q -10.561,0 -17.721,-3.58 -6.981,-3.759 -10.382,-10.024 -3.401,-6.265 -3.401,-13.604 0,-8.771 4.475,-15.036 4.654,-6.265 13.246,-9.666 8.771,-3.401 20.943,-3.401 h 23.449 q 0,-8.055 -2.506,-13.246 -2.327,-5.37 -6.981,-7.876 -4.654,-2.685 -11.277,-2.685 -8.234,0 -14.32,4.117 -5.907,3.938 -7.16,12.53 h -17.9 q 1.074,-9.845 6.265,-16.468 5.37,-6.802 13.962,-10.382 8.592,-3.759 19.153,-3.759 12.709,0 21.301,4.475 8.771,4.475 13.067,12.709 4.296,8.055 4.296,19.153 V 200 h -14.857 l -1.79,-14.857 h -0.716 q -2.506,4.296 -5.907,7.518 -3.401,3.043 -7.339,5.191 -3.759,2.148 -8.413,3.222 -4.475,1.074 -9.487,1.074 z m 4.296,-14.499 q 6.265,0 10.919,-2.327 4.833,-2.327 8.055,-6.265 3.401,-4.117 5.012,-9.129 1.79,-5.012 1.969,-10.382 v 0 h -21.301 q -7.876,0 -12.709,1.79 -4.654,1.79 -6.802,5.012 -2.148,3.222 -2.148,7.518 0,4.117 1.969,7.339 2.148,3.043 5.907,4.833 3.938,1.611 9.129,1.611 z"
       id="path36" />
    <path
       d="m 1285.6463,200 q -8.413,0 -14.857,-2.685 -6.265,-2.685 -9.666,-8.95 -3.222,-6.265 -3.222,-17.005 v -46.719 h -15.394 v -13.425 h 15.394 l 1.969,-22.196 h 15.931 v 22.196 h 25.239 v 13.425 h -25.239 v 46.898 q 0,8.413 3.043,11.277 3.222,2.864 11.098,2.864 h 10.024 V 200 Z"
       id="path38" />
    <path
       d="m 1312.1383,200 v -88.784 h 17.9 V 200 Z m 8.95,-104.536 q -5.191,0 -8.592,-3.222 -3.401,-3.222 -3.401,-8.234 0,-4.833 3.401,-8.055 3.401,-3.401 8.592,-3.401 5.012,0 8.413,3.401 3.401,3.222 3.401,8.055 0,4.833 -3.401,8.234 -3.401,3.222 -8.413,3.222 z"
       id="path40" />
    <path
       d="m 1389.1082,202.148 q -12.53,0 -22.733,-5.728 -10.024,-5.907 -15.931,-16.289 -5.907,-10.561 -5.907,-24.523 0,-13.962 5.907,-24.344 6.086,-10.561 16.11,-16.289 10.203,-5.907 22.912,-5.907 12.709,0 22.733,5.907 10.203,5.728 15.931,16.289 5.907,10.382 5.907,24.344 0,13.962 -5.907,24.523 -5.907,10.382 -16.11,16.289 -10.203,5.728 -22.912,5.728 z m 0,-14.32 q 7.16,0 13.067,-3.58 6.086,-3.58 9.845,-10.561 3.759,-7.16 3.759,-18.079 0,-10.919 -3.759,-18.079 -3.58,-7.16 -9.666,-10.561 -5.907,-3.58 -12.888,-3.58 -6.981,0 -13.067,3.58 -6.086,3.401 -9.845,10.561 -3.759,7.16 -3.759,18.079 0,10.919 3.759,18.079 3.759,6.981 9.666,10.561 6.086,3.58 12.888,3.58 z"
       id="path42" />
    <path
       d="m 1445.672,200 v -88.784 h 15.573 l 1.611,14.141 h 0.716 q 4.475,-7.518 11.993,-11.814 7.518,-4.475 18.258,-4.475 10.382,0 18.079,4.475 7.697,4.296 11.814,13.067 4.296,8.771 4.296,22.196 V 200 h -17.9 v -49.404 q 0,-12.888 -5.549,-19.511 -5.37,-6.802 -16.11,-6.802 -7.16,0 -12.888,3.58 -5.549,3.401 -8.771,10.024 -3.222,6.623 -3.222,16.11 V 200 Z"
       id="path44" />
    <path
       d="M 1578.1321,200 V 74.7 h 17.9 v 111.159 h 57.28 V 200 Z"
       id="path46" />
    <path
       d="m 1692.871,202.148 q -10.561,0 -17.721,-3.58 -6.981,-3.759 -10.382,-10.024 -3.401,-6.265 -3.401,-13.604 0,-8.771 4.475,-15.036 4.654,-6.265 13.246,-9.666 8.771,-3.401 20.943,-3.401 h 23.449 q 0,-8.055 -2.506,-13.246 -2.327,-5.37 -6.981,-7.876 -4.654,-2.685 -11.277,-2.685 -8.234,0 -14.32,4.117 -5.907,3.938 -7.16,12.53 h -17.9 q 1.074,-9.845 6.265,-16.468 5.37,-6.802 13.962,-10.382 8.592,-3.759 19.153,-3.759 12.709,0 21.301,4.475 8.771,4.475 13.067,12.709 4.296,8.055 4.296,19.153 V 200 h -14.857 l -1.79,-14.857 h -0.716 q -2.506,4.296 -5.907,7.518 -3.401,3.043 -7.339,5.191 -3.759,2.148 -8.413,3.222 -4.475,1.074 -9.487,1.074 z m 4.296,-14.499 q 6.265,0 10.919,-2.327 4.833,-2.327 8.055,-6.265 3.401,-4.117 5.012,-9.129 1.79,-5.012 1.969,-10.382 v 0 h -21.301 q -7.876,0 -12.709,1.79 -4.654,1.79 -6.802,5.012 -2.148,3.222 -2.148,7.518 0,4.117 1.969,7.339 2.148,3.043 5.907,4.833 3.938,1.611 9.129,1.611 z"
       id="path48" />
    <path
       d="m 1808.5047,202.148 q -7.339,0 -13.783,-2.148 -6.444,-2.148 -11.635,-6.265 -5.012,-4.117 -8.95,-10.382 h -0.716 l -1.253,16.647 h -15.036 V 74.7 h 17.9 v 50.12 q 4.296,-6.086 12.172,-10.919 7.876,-4.833 19.69,-4.833 13.783,0 23.449,6.086 9.666,6.086 14.678,16.647 5.191,10.561 5.191,23.807 0,13.246 -5.191,23.807 -5.012,10.561 -14.499,16.647 -9.308,6.086 -22.017,6.086 z m -4.833,-15.215 q 8.771,0 15.036,-3.938 6.444,-3.938 9.845,-10.919 3.58,-7.16 3.58,-16.468 0,-9.487 -3.58,-16.468 -3.401,-6.981 -9.845,-10.919 -6.265,-3.938 -15.036,-3.938 -8.592,0 -15.036,3.938 -6.444,3.938 -10.024,10.919 -3.401,6.981 -3.401,16.468 0,9.308 3.401,16.468 3.58,6.981 10.024,10.919 6.444,3.938 15.036,3.938 z"
       id="path50" />
  </g>
  <!-- Curves and head outlines — filled + stroke to thicken -->
  <g fill="url(#logoGradient)"
     stroke="url(#logoGradient)"
     stroke-width="16"
     stroke-linejoin="round"
     stroke-linecap="round"
     paint-order="stroke fill">
    <path d="M203.5,1142l-.9-.5c10.5-17.4,19.1-35.9,25.4-55.1,21.4-64.8,12.1-120,8.6-140.8-5.7-33.9-15.5-50.1-33.4-79.5-11.8-19.5-26.5-43.7-45.5-82.2-1.4-2.9-3.7-6.9-6.5-12-12.4-22.4-35.5-64.1-45.1-108-.8-3.7-7.7-37-4.7-80.6,3.9-56.1,21.6-104.2,52.8-143,67.1-83.5,179.4-100.1,239.7-108.9h.2c.6-.1,1.1-.2,1.8-.3,30.6-4.3,187.9-19.8,285.8,98.6.3.3.7.8,1.2,1.5,32.8,40.3,52.9,86.4,59.7,137.3,5,37.2,1,66.1-.8,73.3v.4c-2.3,8.6-3.1,17.4-2.3,26.2,0,0,.2,2.3.5,4.6,3.4,23.4,51.6,102.6,72.1,135.6h0c1.3,4.4,1.1,8-.5,10.7-2.9,4.8-9.9,5.4-15.5,5.8-.6,0-1.1,0-1.6.1-3.3.3-32.6,3.2-41.5,15.2-4.7,6.5-4.3,17,1.4,31.2v.3c.1,0-12.2,16.2-12.2,16.2l13.2,19-.3.3c-7.5,7.4-13.5,16.5-17.5,26.3-4.1,10-6,21.1-5.7,31.9,1.2,10,3.4,44-19.1,62.1-8.2,6.6-16.9,8.7-25.3,10.7-19.2,4.6-32.8,2.5-48.5,0-6.5-1-13.2-2-20.8-2.7-20.5-1.7-51.5-4.3-72.3,9.6-31.3,20.8-30.6,72.5-28.8,93.8h-1c-1.8-21.4-2.4-73.5,29.3-94.6,21.2-14.1,52.4-11.5,73-9.8,7.6.6,14.3,1.7,20.8,2.7,15.6,2.4,29.1,4.5,48.2,0,8.3-2,16.8-4,24.9-10.5,22.1-17.7,19.9-51.3,18.8-61.2-.4-11,1.6-22.2,5.8-32.4,4-9.8,10-18.8,17.4-26.3l-13.2-18.9,12.4-16.4c-5.7-14.5-6.1-25.2-1.2-31.9,9.1-12.4,38.8-15.3,42.2-15.6.5,0,1.1,0,1.7-.1,5.4-.4,12-.9,14.7-5.4,1.5-2.4,1.6-5.6.4-9.7-20.6-33-68.7-112.3-72.2-135.9-.3-2.3-.6-4.6-.6-4.7-.8-8.9,0-17.8,2.2-26.5v-.4c1.9-7.1,5.9-35.9.8-73-6.9-50.6-26.9-96.7-59.5-136.8-.6-.7-1-1.2-1.2-1.5-97.5-117.9-254.4-102.5-284.9-98.2-.7.1-1.2.2-1.8.3h-.2c-60.2,8.9-172.2,25.4-239,108.6-31,38.6-48.7,86.6-52.5,142.5-3,43.4,3.9,76.6,4.7,80.3,9.5,43.7,32.6,85.3,44.9,107.7,2.8,5.1,5.1,9.2,6.5,12.1,19,38.4,33.7,62.6,45.5,82.1,17.9,29.5,27.7,45.8,33.5,79.9,3.5,20.9,12.9,76.2-8.6,141.3-6.3,19.2-14.9,37.8-25.5,55.3Z"/>
    <path d="M1351.7,1137.5c-2.8-28-13.1-94.3-48.2-104.3-7.2-2.1-17.5-1.5-38-.2-14.4.9-22.6,2.2-30.4,3.5-7.6,1.3-14.8,2.5-27,3.1-24.7,1.3-39.6,2-54.4-6.9-12-7.2-20.6-17.3-24.2-28.5-2.7-8.2-2.5-17.2-1.3-35.9.4-6.3.9-10.4,1.3-13.3.6-4.5.9-6.1-.4-9.4-2.7-6.8-8.7-11.3-13.9-15.2-5.7-4.3-10.6-8-10.1-13.6,0-.9.3-1.9.7-2.8v-.2c.1,0,19.7-20.1,19.7-20.1l-31.5-23.6.5-.4c11-9.6,15.9-21.7,12.8-31.6-1.7-5.4-5.4-8.9-6.9-10.1-4.9-4.1-10-4.3-17.1-4.6-5.5-.2-12.4-.5-21-2.8-11.8-3.1-17.5-5.5-20.6-11.3-2.3-4.4-2.5-10-.5-16.2v-.2c41.3-52.6,67-90.8,73.3-104.1,1.7-3.4,5.6-11.5,5.9-22.3.1-4.1-.2-10.4-2.5-17.4v-.2c-2.3-6.8-5.3-41.8,4.7-88.9,8.5-39.9,28.8-97.7,77.2-146.1,61.3-61.3,133-74.1,180.4-82.5,42.9-7.6,109.8-11.9,184.5,10.9,35.2,10.8,83.4,25.5,128,67.5,40.1,37.7,66.7,87.1,79,146.7,8.7,42.4,7.7,78.1,6.3,95.5-4.6,57.7-25.7,103.8-32.6,119-12.5,27.3-22.9,41.3-34,56.2-10.7,14.4-21.8,29.3-36.5,57.6l-.9,1.7c-22.4,43.2-45.6,87.8-42,144.1,2.3,36.1,14.7,71.6,36.9,105.4l-.8.5c-22.3-34-34.8-69.6-37.1-105.9-3.6-56.5,19.7-101.3,42.1-144.6l.9-1.7c14.7-28.4,25.8-43.3,36.6-57.7,11-14.8,21.5-28.8,33.9-56,6.9-15.1,27.9-61.1,32.5-118.6,1.4-17.4,2.4-53-6.3-95.3-12.3-59.4-38.7-108.6-78.7-146.2-44.5-41.9-92.5-56.5-127.6-67.3-74.6-22.8-141.2-18.5-184.1-10.9-47.3,8.4-118.7,21.1-179.8,82.2-48.2,48.2-68.4,105.8-76.9,145.6-10,47-7,81.7-4.9,88.4v.2c2.5,7.1,2.8,13.6,2.7,17.8-.4,11-4.3,19.2-6,22.7-6.6,13.7-31.9,51.2-73.3,104.2-1.9,5.9-1.7,11.3.4,15.4,2.9,5.4,8.5,7.7,19.9,10.8,8.5,2.3,15.3,2.6,20.8,2.8,7,.3,12.6.5,17.7,4.8,1.6,1.3,5.4,4.9,7.2,10.6,3.2,10.2-1.7,22.5-12.7,32.3l31.5,23.5-20.4,20.8c-.3.8-.5,1.6-.6,2.4-.4,5.1,4.3,8.6,9.7,12.7,5.3,4,11.4,8.6,14.2,15.7,1.4,3.5,1.1,5.4.5,9.9-.4,2.9-1,6.9-1.3,13.2-1.1,18.5-1.3,27.4,1.3,35.5,3.5,10.9,12,20.8,23.8,27.9,13.9,8.4,27.3,8.1,53.9,6.8,12.2-.6,19.3-1.8,26.9-3.1,7.9-1.3,16-2.7,30.5-3.5,20.6-1.2,31-1.8,38.4.3,35.7,10.3,46.1,77,48.9,105.2h-1Z"/>
    <path d="M1294.6,910.5c-57.7,0-108.8-9-143.4-15.1-51.9-9.2-79.6-19.8-104-29.2-28.4-10.9-50.9-19.6-100-21.3-52.7-1.9-82.2,6.3-113.3,14.9-30.5,8.5-62,17.2-118.5,18.8-27.8.8-57.3-.8-87.6-4.8-53.9-7-106.2-20.7-155.4-40.9-69.2-28.3-140.7-57.7-171.7-131.1-16.3-38.6-19.6-74-9.9-105.4,6.8-21.9,20.2-41.9,39.8-59.5,17.3-15.6,39.5-29.3,66.1-40.9,43.1-18.9,97.9-31.9,150.2-35.6,81.8-5.9,133.8,21.3,188.8,50.1,55.9,29.3,113.7,59.5,207.5,56.9,86.6-2.5,158.7-27.5,159.4-27.7,29.6-10.4,45.1-19.1,61.5-28.3,15.7-8.8,31.9-18,61.8-29.3,44.2-16.7,111.1-42,189.1-32.6,66.8,8.1,164.3,44.3,165.9,88.7.9,25.3-28.6,54.1-80.9,78.9-51,24.2-115.5,40.1-172.5,42.7-22.1,1-80-7.5-185.2-23-63.6-9.3-102.9-15.5-128.9-19.5-43.6-6.8-48.1-7.5-64.2-7.2-34.4.7-48.5,4.7-116.5,24-31.2,8.8-73.9,21-135,37.4-139.4,37.5-169.4,42.2-202.2,45.6-57,5.8-115.1,5.1-172.5-2v-1c57.5,7.1,115.5,7.8,172.4,2,32.8-3.3,62.7-8.1,202-45.6,61.1-16.5,103.8-28.6,135-37.4,68.1-19.3,82.3-23.3,116.8-24,16.2-.3,20.8.4,64.4,7.2,26,4.1,65.3,10.2,128.9,19.5,105.1,15.4,163,23.9,185,23,56.8-2.5,121.2-18.4,172.1-42.6,24.5-11.6,44.8-24.7,58.7-37.8,14.8-14,22.1-27.5,21.6-40.2-1.6-43.8-98.6-79.7-165-87.7-77.8-9.4-144.5,15.8-188.6,32.5-29.8,11.3-46,20.4-61.6,29.2-16.4,9.3-31.9,18-61.6,28.4-.7.3-73,25.3-159.7,27.8-3.9.1-7.7.2-11.5.2-87.4,0-142.8-29-196.5-57.1-54.9-28.8-106.8-55.9-188.3-50-52.2,3.8-106.9,16.7-149.9,35.5-26.4,11.6-48.6,25.3-65.8,40.8-19.5,17.5-32.8,37.4-39.5,59.1-9.6,31.1-6.3,66.3,9.9,104.7,30.8,73,102.1,102.2,171.1,130.5,49.1,20.1,101.3,33.8,155.1,40.8,30.3,3.9,59.7,5.5,87.4,4.8,56.3-1.5,87.8-10.3,118.2-18.7,31.3-8.7,60.8-16.9,113.6-15,49.3,1.8,71.8,10.4,100.3,21.4,24.4,9.4,52,20,103.8,29.2,37,6.5,92.9,16.4,155.4,15,74.7-1.7,140.6-19.4,196-52.6,50.5-30.3,92.8-73.2,125.7-127.6l.9.5c-33,54.6-75.4,97.6-126,128-55.5,33.3-121.6,51-196.5,52.7-4.1,0-8.2.1-12.2.1Z"/>
    <path d="M1574.5,656.1c-21.3,0-45.2-2.2-71.6-6.5-85-14.1-145-42.7-189-64-37.2,18.3-66.7,27.6-93.2,34.3-42,10.5-87,13.1-133.7,7.6v-1c46.7,5.5,91.6,2.9,133.5-7.6,26.3-6.6,55.5-15.8,92.3-33.9-.3-.2-.6-.3-.9-.5-4.6-2.2-9-4.3-13.2-6.4-43.4-20.7-109-52-186-75.7-91.6-28.2-179-39-259.6-32.2-47.3,4-91.9,7.7-130.9,17.3-43.1,10.6-75.4,27.4-101.6,52.9-2.4,2.3-4.8,4.7-7.3,7.3-14.5,14.9-32.6,33.3-62.3,40.3-41.9,9.9-90.5-4.9-118.4-35.8-10.5-11.7-14.2-22-18.1-33-4.1-11.3-8.2-23.1-20.5-37.4-26.4-30.8-74.5-56.5-122.4-44.4-5.9,1.5-58.5,16-71,61.1-8.6,31,6,60.5,19.7,79.8,36.9,51.7,120.2,71,217.5,50.3l.2,1c-97.7,20.8-181.4,1.3-218.5-50.7-13.9-19.5-28.6-49.3-19.9-80.7,12.7-45.6,65.7-60.3,71.7-61.8,48.2-12.2,96.7,13.7,123.4,44.7,12.4,14.5,16.6,26.3,20.7,37.7,3.9,10.8,7.5,21.1,17.9,32.6,13.8,15.4,32.8,26.9,54.8,33.2,20.9,6.1,43.2,6.9,62.7,2.3,29.4-6.9,47.4-25.3,61.8-40.1,2.5-2.6,4.9-5.1,7.3-7.4,26.3-25.6,58.7-42.5,102.1-53.1,39.1-9.6,83.8-13.4,131.1-17.4,80.7-6.8,168.2,4.1,260,32.3,77.1,23.7,142.7,55,186.2,75.8,4.2,2,8.6,4.1,13.2,6.4.5.3,1.1.5,1.6.8,36-17.8,79.3-44,134.3-84.4,2.3-1.7,4.6-3.4,6.9-5.1,23.4-17.4,47.6-35.4,84.5-41.6,30.8-5.2,67.1-1.8,97.1,9,44.8,16.2,61.2,42.5,67,61.7,5.3,17.4,4.5,37-2.2,56.8-6.2,18.2-17.1,35.2-30.6,47.8-19.6,18.2-52.3,27.5-96.3,27.5ZM1315.1,585c43.9,21.3,103.6,49.6,188,63.6,80.4,13.3,138.2,6.1,167-20.7,13.4-12.5,24.2-29.3,30.4-47.4,6.7-19.6,7.4-39,2.2-56.2-18.3-60.4-106.4-79.5-162.9-70-36.7,6.1-60.8,24.1-84.1,41.4-2.3,1.7-4.6,3.4-6.9,5.1-54.6,40.2-97.8,66.3-133.7,84.1Z"/>
    <path d="M441.5,628.7l-.3-1c40.2-10.6,78.3-26.1,113.2-46.2,1.3-.8,2.6-1.5,4-2.3l.5.9c-1.3.8-2.6,1.5-4,2.3-34.9,20.1-73.1,35.7-113.4,46.3Z"/>
    <path d="M306.1,712.5c-24.3,0-51-5.8-72.9-16.1-25.7-12.1-41.4-28.4-43-44.7-1.1-11.5,4.5-24.3,16.3-37.1,26.9-29.1,78.8-51.3,118.3-50.7,3.2,0,12.3.7,30.4,2,36.5,2.6,54.7,4.6,65.5,5.8,9.3,1,14,1.6,21,1.5,36-.5,95.5-17.2,111.8-61.1,8.6-23,6.1-56.7-15.1-76.7-29.6-28-79.5-11.8-101.8.7-24.7,13.9-38.7,34.8-46,50l-.9-.4c7.4-15.3,21.5-36.4,46.4-50.4,14.8-8.3,33.3-14.2,49.6-15.9,22-2.2,40.4,3.1,53.4,15.3,21.5,20.3,24,54.5,15.3,77.8-16.5,44.3-76.5,61.2-112.8,61.8-7,.1-11.7-.4-21.1-1.5-10.9-1.2-29-3.2-65.5-5.8-18.1-1.3-27.2-1.9-30.4-2-39.2-.6-90.8,21.5-117.5,50.4-11.6,12.6-17.2,25.1-16.1,36.3,1.5,16,17,32,42.4,43.9,24.5,11.5,54.9,17.4,81.3,15.8,74.6-4.6,117.9-67.7,125.8-80.4l.8.5c-8,12.7-51.5,76.2-126.6,80.8-2.9.2-5.8.3-8.8.3Z"/>
    <path d="M1085.2,734.9c-28.8,0-56-4-80.6-11.9-22.1-7.1-40.3-16.5-59.7-26.4-34.6-17.7-70.4-36.1-131.1-42.3-18.1-1.8-33.8-2.1-49-2.4-28-.5-54.5-1-90.5-11.5-40-11.7-77.8-31.7-112.2-59.4l.6-.8c34.4,27.6,72,47.5,111.9,59.2,35.9,10.5,62.3,11,90.2,11.5,15.2.3,30.9.5,49.1,2.4,60.9,6.2,96.8,24.6,131.4,42.4,19.3,9.9,37.6,19.3,59.6,26.3,105.7,34,237.2-9.9,320.6-68.6,12.8-9,23.7-18,34.3-26.7,22.2-18.3,45.1-37.2,86.2-56.5,4.3-2,8.6-4.1,13.1-6.1-31.6-48.2-57.2-80.7-93.9-95.5-23.5-9.4-63.4-15.6-120.6,8.6l-.4-.9c57.5-24.3,97.7-18.1,121.4-8.6,37,14.9,62.7,47.5,94.4,96,34.1-15.5,75.1-31,123.4-22.7,26.5,4.5,90.1,20.9,109.6,74.4,4.8,13.3,7,29.1,5.9,43.2-1.4,17.8-7.8,33.4-18.5,45.1-23,25-57.2,24.3-63.8,23.9-48.2-2.8-81.5-48.7-108.3-85.5-6.9-9.5-9.6-14.3-13.4-20.8-3-5.2-6.7-11.7-13.7-22.8-7.6-11.9-14.7-23.1-21.6-33.6-4.5,2.1-9,4.1-13.2,6.2-41,19.2-62.8,37.3-86,56.3-10.6,8.7-21.5,17.7-34.4,26.8-45.7,32.1-100.9,57-155.6,70.1-29.4,7-58.1,10.6-85.2,10.6ZM1460.6,564.5c6.8,10.4,13.9,21.6,21.5,33.5,7.1,11.1,10.8,17.6,13.8,22.8,3.7,6.5,6.4,11.3,13.3,20.7,26.6,36.7,59.8,82.3,107.5,85.1,6.5.4,40.4,1.1,63-23.6,14.6-15.9,26.6-48.3,12.4-87.3-19.3-53.1-82.5-69.3-108.8-73.8-48-8.2-88.8,7.1-122.7,22.5Z"/>
    <path d="M816.7,773.3c-60.5,0-108.3-14.3-147.6-26-79.7-23.8-155.2-62-224.4-113.7l.6-.8c69.1,51.6,144.5,89.7,224.1,113.5,44.3,13.2,99.4,29.7,171.3,25.2,59.9-3.7,117.9-20.5,172.3-49.8l.5.9c-54.5,29.4-112.7,46.2-172.7,49.9-8.2.5-16.3.8-24.1.8Z"/>
    <path d="M988.1,935.3c-20.3,0-41.1-1.5-60.5-4.7-39.8-6.5-92.5-23.4-125.2-40.1l-.4-.2c-5.7-2.9-20.8-10.6-41.9-13-14.4-1.6-29.2-.5-44.1,3.4l-.3-1c15-3.9,29.9-5,44.4-3.4,21.3,2.4,36.5,10.2,42.3,13.1l.4.2c32.7,16.6,85.2,33.5,124.9,40,72.3,11.9,149.7,0,173.8-18.1l.5-.4c3.7-2.8,14.8-11.2,31.2-14.5,8.3-1.6,16.9-1.7,25.6-.3l-.2,1c-8.6-1.4-17.1-1.3-25.3.3-16.2,3.2-27.2,11.5-30.8,14.3l-.5.4c-19.3,14.5-65.5,23-114.1,23Z"/>
    <path d="M1504.8,755.4c-21,0-41.6-2.4-61.3-7.2-53.1-13-95.8-43.2-117.3-82.9-25-46.3-24.1-109.3,2.3-160.5,1.9-3.8,48.7-92.4,140-95.8,1,0,2.1,0,3.2-.1,20.6-.9,58.9-2.5,87.4,25.8,40.1,39.8,24.4,102.4,23.7,105.1l-1-.3c.7-2.6,16.3-64.7-23.4-104.1-28.3-28.1-66.3-26.4-86.7-25.5-1.1,0-2.2,0-3.2.1-90.8,3.5-137.2,91.5-139.2,95.3-26.3,51-27.2,113.6-2.3,159.6,21.3,39.4,63.8,69.4,116.6,82.4,56.1,13.8,119.5,7.7,178.7-17.2l.4.9c-38.6,16.2-79,24.5-118,24.5Z"/>
    <path d="M2152.7,512.2"/>
  </g>
  <!-- Nodes -->
  <g fill="url(#logoGradient)" stroke="none">
    <circle cx="390.4" cy="489.8" r="29.9"/>
    <circle cx="436.5" cy="629.2" r="29.9"/>
    <circle cx="558.6" cy="579.6" r="29.9"/>
    <circle cx="312.6" cy="718.1" r="26.7"/>
    <circle cx="622.3" cy="535.4" r="23.9"/>
    <circle cx="669.5" cy="748.1" r="22.9"/>
    <circle cx="713.9" cy="876.2" r="22.9"/>
    <circle cx="1010.5" cy="718.1" r="22.9"/>
    <circle cx="1153" cy="887.8" r="26.2"/>
    <circle cx="1323.2" cy="659.3" r="26.2"/>
    <circle cx="1507.2" cy="645.8" r="29.9"/>
    <circle cx="1578.9" cy="544.8" r="26.9"/>
    <circle cx="1301.8" cy="578.2" r="26.9"/>
    <circle cx="1622.6" cy="724.8" r="26.9"/>
    <circle cx="1680.7" cy="613.1" r="26.9"/>
    <circle cx="1226.5" cy="618.1" r="22.9"/>
  </g>
</svg>
