<svg width="816" height="410" xmlns="http://www.w3.org/2000/svg" xmlns:xlink="http://www.w3.org/1999/xlink" xml:space="preserve" overflow="hidden"><defs><clipPath id="clip0"><rect x="108" y="170" width="816" height="410"/></clipPath><clipPath id="clip1"><rect x="108" y="170" width="816" height="410"/></clipPath><clipPath id="clip2"><rect x="108" y="171" width="816" height="409"/></clipPath><clipPath id="clip3"><rect x="108" y="171" width="816" height="410"/></clipPath><linearGradient x1="19.3161" y1="0" x2="794.965" y2="0" gradientUnits="userSpaceOnUse" spreadMethod="pad" id="fill4"><stop offset="0" stop-color="#1C3A72" stop-opacity="1"/><stop offset="1" stop-color="#1CAABC" stop-opacity="1"/></linearGradient><linearGradient x1="19.3161" y1="0" x2="794.965" y2="0" gradientUnits="userSpaceOnUse" spreadMethod="pad" id="fill5"><stop offset="0" stop-color="#1C3A72" stop-opacity="1"/><stop offset="1" stop-color="#1CAABC" stop-opacity="1"/></linearGradient><linearGradient x1="19.3161" y1="0" x2="794.965" y2="0" gradientUnits="userSpaceOnUse" spreadMethod="pad" id="fill6"><stop offset="0" stop-color="#1C3A72" stop-opacity="1"/><stop offset="1" stop-color="#1CAABC" stop-opacity="1"/></linearGradient><linearGradient x1="19.3161" y1="0" x2="794.965" y2="0" gradientUnits="userSpaceOnUse" spreadMethod="pad" id="fill7"><stop offset="0" stop-color="#1C3A72" stop-opacity="1"/><stop offset="1" stop-color="#1CAABC" stop-opacity="1"/></linearGradient><linearGradient x1="19.3161" y1="0" x2="794.965" y2="0" gradientUnits="userSpaceOnUse" spreadMethod="pad" id="fill8"><stop offset="0" stop-color="#1C3A72" stop-opacity="1"/><stop offset="1" stop-color="#1CAABC" stop-opacity="1"/></linearGradient><linearGradient x1="19.3161" y1="0" x2="794.965" y2="0" gradientUnits="userSpaceOnUse" spreadMethod="pad" id="fill9"><stop offset="0" stop-color="#1C3A72" stop-opacity="1"/><stop offset="1" stop-color="#1CAABC" stop-opacity="1"/></linearGradient><linearGradient x1="19.3161" y1="0" x2="794.965" y2="0" gradientUnits="userSpaceOnUse" spreadMethod="pad" id="fill10"><stop offset="0" stop-color="#1C3A72" stop-opacity="1"/><stop offset="1" stop-color="#1CAABC" stop-opacity="1"/></linearGradient><linearGradient x1="19.3161" y1="0" x2="794.965" y2="0" gradientUnits="userSpaceOnUse" spreadMethod="pad" id="fill11"><stop offset="0" stop-color="#1C3A72" stop-opacity="1"/><stop offset="1" stop-color="#1CAABC" stop-opacity="1"/></linearGradient><linearGradient x1="19.3161" y1="0" x2="794.965" y2="0" gradientUnits="userSpaceOnUse" spreadMethod="pad" id="fill12"><stop offset="0" stop-color="#1C3A72" stop-opacity="1"/><stop offset="1" stop-color="#1CAABC" stop-opacity="1"/></linearGradient><linearGradient x1="19.3161" y1="0" x2="794.965" y2="0" gradientUnits="userSpaceOnUse" spreadMethod="pad" id="fill13"><stop offset="0" stop-color="#1C3A72" stop-opacity="1"/><stop offset="1" stop-color="#1CAABC" stop-opacity="1"/></linearGradient><linearGradient x1="19.3161" y1="0" x2="794.965" y2="0" gradientUnits="userSpaceOnUse" spreadMethod="pad" id="fill14"><stop offset="0" stop-color="#1C3A72" stop-opacity="1"/><stop offset="1" stop-color="#1CAABC" stop-opacity="1"/></linearGradient><linearGradient x1="19.3161" y1="0" x2="794.965" y2="0" gradientUnits="userSpaceOnUse" spreadMethod="pad" id="fill15"><stop offset="0" stop-color="#1C3A72" stop-opacity="1"/><stop offset="1" stop-color="#1CAABC" stop-opacity="1"/></linearGradient><linearGradient x1="19.3161" y1="0" x2="794.965" y2="0" gradientUnits="userSpaceOnUse" spreadMethod="pad" id="fill16"><stop offset="0" stop-color="#1C3A72" stop-opacity="1"/><stop offset="1" stop-color="#1CAABC" stop-opacity="1"/></linearGradient><linearGradient x1="19.3161" y1="0" x2="794.965" y2="0" gradientUnits="userSpaceOnUse" spreadMethod="pad" id="fill17"><stop offset="0" stop-color="#1C3A72" stop-opacity="1"/><stop offset="1" stop-color="#1CAABC" stop-opacity="1"/></linearGradient><linearGradient x1="19.3161" y1="0" x2="794.965" y2="0" gradientUnits="userSpaceOnUse" spreadMethod="pad" id="fill18"><stop offset="0" stop-color="#1C3A72" stop-opacity="1"/><stop offset="1" stop-color="#1CAABC" stop-opacity="1"/></linearGradient><linearGradient x1="19.3161" y1="0" x2="794.965" y2="0" gradientUnits="userSpaceOnUse" spreadMethod="pad" id="fill19"><stop offset="0" stop-color="#1C3A72" stop-opacity="1"/><stop offset="1" stop-color="#1CAABC" stop-opacity="1"/></linearGradient><linearGradient x1="19.3161" y1="0" x2="794.965" y2="0" gradientUnits="userSpaceOnUse" spreadMethod="pad" id="fill20"><stop offset="0" stop-color="#1C3A72" stop-opacity="1"/><stop offset="1" stop-color="#1CAABC" stop-opacity="1"/></linearGradient><linearGradient x1="19.3161" y1="0" x2="794.965" y2="0" gradientUnits="userSpaceOnUse" spreadMethod="pad" id="fill21"><stop offset="0" stop-color="#1C3A72" stop-opacity="1"/><stop offset="1" stop-color="#1CAABC" stop-opacity="1"/></linearGradient><linearGradient x1="19.3161" y1="0" x2="794.965" y2="0" gradientUnits="userSpaceOnUse" spreadMethod="pad" id="fill22"><stop offset="0" stop-color="#1C3A72" stop-opacity="1"/><stop offset="1" stop-color="#1CAABC" stop-opacity="1"/></linearGradient><linearGradient x1="19.3161" y1="0" x2="794.965" y2="0" gradientUnits="userSpaceOnUse" spreadMethod="pad" id="fill23"><stop offset="0" stop-color="#1C3A72" stop-opacity="1"/><stop offset="1" stop-color="#1CAABC" stop-opacity="1"/></linearGradient><linearGradient x1="19.3161" y1="0" x2="794.965" y2="0" gradientUnits="userSpaceOnUse" spreadMethod="pad" id="fill24"><stop offset="0" stop-color="#1C3A72" stop-opacity="1"/><stop offset="1" stop-color="#1CAABC" stop-opacity="1"/></linearGradient><linearGradient x1="19.3161" y1="0" x2="794.965" y2="0" gradientUnits="userSpaceOnUse" spreadMethod="pad" id="stroke25"><stop offset="0" stop-color="#1C3A72" stop-opacity="1"/><stop offset="1" stop-color="#1CAABC" stop-opacity="1"/></linearGradient><linearGradient x1="19.3161" y1="0" x2="794.965" y2="0" gradientUnits="userSpaceOnUse" spreadMethod="pad" id="fill26"><stop offset="0" stop-color="#1C3A72" stop-opacity="1"/><stop offset="1" stop-color="#1CAABC" stop-opacity="1"/></linearGradient><linearGradient x1="19.3161" y1="0" x2="794.965" y2="0" gradientUnits="userSpaceOnUse" spreadMethod="pad" id="stroke27"><stop offset="0" stop-color="#1C3A72" stop-opacity="1"/><stop offset="1" stop-color="#1CAABC" stop-opacity="1"/></linearGradient><linearGradient x1="19.3161" y1="0" x2="794.965" y2="0" gradientUnits="userSpaceOnUse" spreadMethod="pad" id="fill28"><stop offset="0" stop-color="#1C3A72" stop-opacity="1"/><stop offset="1" stop-color="#1CAABC" stop-opacity="1"/></linearGradient><linearGradient x1="19.3161" y1="0" x2="794.965" y2="0" gradientUnits="userSpaceOnUse" spreadMethod="pad" id="stroke29"><stop offset="0" stop-color="#1C3A72" stop-opacity="1"/><stop offset="1" stop-color="#1CAABC" stop-opacity="1"/></linearGradient><linearGradient x1="19.3161" y1="0" x2="794.965" y2="0" gradientUnits="userSpaceOnUse" spreadMethod="pad" id="fill30"><stop offset="0" stop-color="#1C3A72" stop-opacity="1"/><stop offset="1" stop-color="#1CAABC" stop-opacity="1"/></linearGradient><linearGradient x1="19.3161" y1="0" x2="794.965" y2="0" gradientUnits="userSpaceOnUse" spreadMethod="pad" id="stroke31"><stop offset="0" stop-color="#1C3A72" stop-opacity="1"/><stop offset="1" stop-color="#1CAABC" stop-opacity="1"/></linearGradient><linearGradient x1="19.3161" y1="0" x2="794.965" y2="0" gradientUnits="userSpaceOnUse" spreadMethod="pad" id="fill32"><stop offset="0" stop-color="#1C3A72" stop-opacity="1"/><stop offset="1" stop-color="#1CAABC" stop-opacity="1"/></linearGradient><linearGradient x1="19.3161" y1="0" x2="794.965" y2="0" gradientUnits="userSpaceOnUse" spreadMethod="pad" id="stroke33"><stop offset="0" stop-color="#1C3A72" stop-opacity="1"/><stop offset="1" stop-color="#1CAABC" stop-opacity="1"/></linearGradient><linearGradient x1="19.3161" y1="0" x2="794.965" y2="0" gradientUnits="userSpaceOnUse" spreadMethod="pad" id="fill34"><stop offset="0" stop-color="#1C3A72" stop-opacity="1"/><stop offset="1" stop-color="#1CAABC" stop-opacity="1"/></linearGradient><linearGradient x1="19.3161" y1="0" x2="794.965" y2="0" gradientUnits="userSpaceOnUse" spreadMethod="pad" id="stroke35"><stop offset="0" stop-color="#1C3A72" stop-opacity="1"/><stop offset="1" stop-color="#1CAABC" stop-opacity="1"/></linearGradient><linearGradient x1="19.3161" y1="0" x2="794.965" y2="0" gradientUnits="userSpaceOnUse" spreadMethod="pad" id="fill36"><stop offset="0" stop-color="#1C3A72" stop-opacity="1"/><stop offset="1" stop-color="#1CAABC" stop-opacity="1"/></linearGradient><linearGradient x1="19.3161" y1="0" x2="794.965" y2="0" gradientUnits="userSpaceOnUse" spreadMethod="pad" id="stroke37"><stop offset="0" stop-color="#1C3A72" stop-opacity="1"/><stop offset="1" stop-color="#1CAABC" stop-opacity="1"/></linearGradient><linearGradient x1="19.3161" y1="0" x2="794.965" y2="0" gradientUnits="userSpaceOnUse" spreadMethod="pad" id="fill38"><stop offset="0" stop-color="#1C3A72" stop-opacity="1"/><stop offset="1" stop-color="#1CAABC" stop-opacity="1"/></linearGradient><linearGradient x1="19.3161" y1="0" x2="794.965" y2="0" gradientUnits="userSpaceOnUse" spreadMethod="pad" id="stroke39"><stop offset="0" stop-color="#1C3A72" stop-opacity="1"/><stop offset="1" stop-color="#1CAABC" stop-opacity="1"/></linearGradient><linearGradient x1="19.3161" y1="0" x2="794.965" y2="0" gradientUnits="userSpaceOnUse" spreadMethod="pad" id="fill40"><stop offset="0" stop-color="#1C3A72" stop-opacity="1"/><stop offset="1" stop-color="#1CAABC" stop-opacity="1"/></linearGradient><linearGradient x1="19.3161" y1="0" x2="794.965" y2="0" gradientUnits="userSpaceOnUse" spreadMethod="pad" id="stroke41"><stop offset="0" stop-color="#1C3A72" stop-opacity="1"/><stop offset="1" stop-color="#1CAABC" stop-opacity="1"/></linearGradient><linearGradient x1="19.3161" y1="0" x2="794.965" y2="0" gradientUnits="userSpaceOnUse" spreadMethod="pad" id="fill42"><stop offset="0" stop-color="#1C3A72" stop-opacity="1"/><stop offset="1" stop-color="#1CAABC" stop-opacity="1"/></linearGradient><linearGradient x1="19.3161" y1="0" x2="794.965" y2="0" gradientUnits="userSpaceOnUse" spreadMethod="pad" id="stroke43"><stop offset="0" stop-color="#1C3A72" stop-opacity="1"/><stop offset="1" stop-color="#1CAABC" stop-opacity="1"/></linearGradient><linearGradient x1="19.3161" y1="0" x2="794.965" y2="0" gradientUnits="userSpaceOnUse" spreadMethod="pad" id="fill44"><stop offset="0" stop-color="#1C3A72" stop-opacity="1"/><stop offset="1" stop-color="#1CAABC" stop-opacity="1"/></linearGradient><linearGradient x1="19.3161" y1="0" x2="794.965" y2="0" gradientUnits="userSpaceOnUse" spreadMethod="pad" id="stroke45"><stop offset="0" stop-color="#1C3A72" stop-opacity="1"/><stop offset="1" stop-color="#1CAABC" stop-opacity="1"/></linearGradient><linearGradient x1="19.3161" y1="0" x2="794.965" y2="0" gradientUnits="userSpaceOnUse" spreadMethod="pad" id="fill46"><stop offset="0" stop-color="#1C3A72" stop-opacity="1"/><stop offset="1" stop-color="#1CAABC" stop-opacity="1"/></linearGradient><linearGradient x1="19.3161" y1="0" x2="794.965" y2="0" gradientUnits="userSpaceOnUse" spreadMethod="pad" id="fill47"><stop offset="0" stop-color="#1C3A72" stop-opacity="1"/><stop offset="1" stop-color="#1CAABC" stop-opacity="1"/></linearGradient><linearGradient x1="19.3161" y1="0" x2="794.965" y2="0" gradientUnits="userSpaceOnUse" spreadMethod="pad" id="fill48"><stop offset="0" stop-color="#1C3A72" stop-opacity="1"/><stop offset="1" stop-color="#1CAABC" stop-opacity="1"/></linearGradient><linearGradient x1="19.3161" y1="0" x2="794.965" y2="0" gradientUnits="userSpaceOnUse" spreadMethod="pad" id="fill49"><stop offset="0" stop-color="#1C3A72" stop-opacity="1"/><stop offset="1" stop-color="#1CAABC" stop-opacity="1"/></linearGradient><linearGradient x1="19.3161" y1="0" x2="794.965" y2="0" gradientUnits="userSpaceOnUse" spreadMethod="pad" id="fill50"><stop offset="0" stop-color="#1C3A72" stop-opacity="1"/><stop offset="1" stop-color="#1CAABC" stop-opacity="1"/></linearGradient><linearGradient x1="19.3161" y1="0" x2="794.965" y2="0" gradientUnits="userSpaceOnUse" spreadMethod="pad" id="fill51"><stop offset="0" stop-color="#1C3A72" stop-opacity="1"/><stop offset="1" stop-color="#1CAABC" stop-opacity="1"/></linearGradient><linearGradient x1="19.3161" y1="0" x2="794.965" y2="0" gradientUnits="userSpaceOnUse" spreadMethod="pad" id="fill52"><stop offset="0" stop-color="#1C3A72" stop-opacity="1"/><stop offset="1" stop-color="#1CAABC" stop-opacity="1"/></linearGradient><linearGradient x1="19.3161" y1="0" x2="794.965" y2="0" gradientUnits="userSpaceOnUse" spreadMethod="pad" id="fill53"><stop offset="0" stop-color="#1C3A72" stop-opacity="1"/><stop offset="1" stop-color="#1CAABC" stop-opacity="1"/></linearGradient><linearGradient x1="19.3161" y1="0" x2="794.965" y2="0" gradientUnits="userSpaceOnUse" spreadMethod="pad" id="fill54"><stop offset="0" stop-color="#1C3A72" stop-opacity="1"/><stop offset="1" stop-color="#1CAABC" stop-opacity="1"/></linearGradient><linearGradient x1="19.3161" y1="0" x2="794.965" y2="0" gradientUnits="userSpaceOnUse" spreadMethod="pad" id="fill55"><stop offset="0" stop-color="#1C3A72" stop-opacity="1"/><stop offset="1" stop-color="#1CAABC" stop-opacity="1"/></linearGradient><linearGradient x1="19.3161" y1="0" x2="794.965" y2="0" gradientUnits="userSpaceOnUse" spreadMethod="pad" id="fill56"><stop offset="0" stop-color="#1C3A72" stop-opacity="1"/><stop offset="1" stop-color="#1CAABC" stop-opacity="1"/></linearGradient><linearGradient x1="19.3161" y1="0" x2="794.965" y2="0" gradientUnits="userSpaceOnUse" spreadMethod="pad" id="fill57"><stop offset="0" stop-color="#1C3A72" stop-opacity="1"/><stop offset="1" stop-color="#1CAABC" stop-opacity="1"/></linearGradient><linearGradient x1="19.3161" y1="0" x2="794.965" y2="0" gradientUnits="userSpaceOnUse" spreadMethod="pad" id="fill58"><stop offset="0" stop-color="#1C3A72" stop-opacity="1"/><stop offset="1" stop-color="#1CAABC" stop-opacity="1"/></linearGradient><linearGradient x1="19.3161" y1="0" x2="794.965" y2="0" gradientUnits="userSpaceOnUse" spreadMethod="pad" id="fill59"><stop offset="0" stop-color="#1C3A72" stop-opacity="1"/><stop offset="1" stop-color="#1CAABC" stop-opacity="1"/></linearGradient><linearGradient x1="19.3161" y1="0" x2="794.965" y2="0" gradientUnits="userSpaceOnUse" spreadMethod="pad" id="fill60"><stop offset="0" stop-color="#1C3A72" stop-opacity="1"/><stop offset="1" stop-color="#1CAABC" stop-opacity="1"/></linearGradient><linearGradient x1="19.3161" y1="0" x2="794.965" y2="0" gradientUnits="userSpaceOnUse" spreadMethod="pad" id="fill61"><stop offset="0" stop-color="#1C3A72" stop-opacity="1"/><stop offset="1" stop-color="#1CAABC" stop-opacity="1"/></linearGradient></defs><g clip-path="url(#clip0)" transform="translate(-108 -170)"><g clip-path="url(#clip1)"><g clip-path="url(#clip2)"><g clip-path="url(#clip3)"><path d="M39.8303 86.7713C35.8861 86.7713 32.4285 86.0798 29.4576 84.6968 26.5378 83.2625 24.2584 81.2648 22.6192 78.7037 20.9801 76.1425 20.1349 73.1459 20.0837 69.714L28.1514 69.714C28.2026 71.6604 28.638 73.4533 29.4576 75.0924 30.3284 76.6803 31.6346 77.9609 33.3761 78.9342 35.1177 79.8562 37.2691 80.3172 39.8303 80.3172 41.9305 80.3172 43.7745 80.0099 45.3624 79.3952 46.9504 78.7805 48.1797 77.8841 49.0505 76.7059 49.9725 75.4766 50.4336 73.9399 50.4336 72.0958 50.4336 70.2518 49.9981 68.7151 49.1274 67.4857 48.3078 66.2564 47.1553 65.2319 45.6698 64.4123 44.1843 63.5928 42.5451 62.8756 40.7523 62.2609 38.9595 61.6463 37.1155 61.006 35.2202 60.3401 30.6613 58.7521 27.255 56.8056 25.0011 54.5006 22.7985 52.1443 21.6972 49.1734 21.6972 45.5877 21.6972 42.7704 22.4143 40.2861 23.8486 38.1347 25.2828 35.9321 27.3062 34.2161 29.9186 32.9867 32.531 31.7574 35.5788 31.1427 39.062 31.1427 42.5451 31.1427 45.5929 31.783 48.2053 33.0636 50.8177 34.3442 52.8667 36.1114 54.3521 38.3652 55.8376 40.619 56.5804 43.257 56.5804 46.2792L48.5127 46.2792C48.4615 44.5376 48.0517 43.0265 47.2833 41.746 46.515 40.4141 45.4137 39.3641 43.9794 38.5957 42.5451 37.8274 40.7523 37.4432 38.6009 37.4432 36.9106 37.4432 35.3739 37.6993 33.9908 38.2115 32.6078 38.7238 31.5065 39.5433 30.6869 40.6703 29.9186 41.746 29.5344 43.1802 29.5344 44.973 29.5344 46.4585 29.8417 47.7135 30.4564 48.7379 31.1223 49.7624 32.07 50.6588 33.2993 51.4272 34.5799 52.1443 36.1166 52.8614 37.9094 53.5786 39.7022 54.2445 41.7512 55.0128 44.0562 55.8836 46.7199 56.8056 49.1017 57.9069 51.2019 59.1875 53.3533 60.4169 55.0437 62.0048 56.273 63.9513 57.5536 65.8466 58.1939 68.3053 58.1939 71.3275 58.1939 73.9911 57.5024 76.5011 56.1194 78.8573 54.7363 81.2136 52.6874 83.1345 49.9725 84.62 47.2577 86.0542 43.877 86.7713 39.8303 86.7713Z" fill="url(#fill4)" fill-rule="nonzero" transform="matrix(1.00211 0 0 1 108 58.8946)"/><path d="M81.1676 86.7713C77.5819 86.7713 74.3292 85.9518 71.4095 84.3126 68.541 82.6222 66.2616 80.2916 64.5712 77.3206 62.8808 74.2984 62.0356 70.7896 62.0356 66.7942 62.0356 62.7988 62.8808 59.3156 64.5712 56.3446 66.3128 53.3224 68.6178 50.9918 71.4863 49.3526 74.4061 47.6623 77.6844 46.8171 81.3212 46.8171 84.9581 46.8171 88.2108 47.6623 91.0793 49.3526 93.999 50.9918 96.2785 53.3224 97.9176 56.3446 99.608 59.3156 100.453 62.7988 100.453 66.7942 100.453 70.7896 99.608 74.2984 97.9176 77.3206 96.2273 80.2916 93.9222 82.6222 91.0025 84.3126 88.0827 85.9518 84.8044 86.7713 81.1676 86.7713ZM81.1676 80.6245C83.2165 80.6245 85.0862 80.1123 86.7765 79.0878 88.5181 78.0634 89.9268 76.5523 91.0025 74.5546 92.0782 72.5056 92.616 69.9188 92.616 66.7942 92.616 63.6696 92.0782 61.0828 91.0025 59.0339 89.978 56.9849 88.595 55.4738 86.8534 54.5006 85.163 53.4761 83.319 52.9639 81.3212 52.9639 79.3235 52.9639 77.4539 53.4761 75.7123 54.5006 73.9707 55.4738 72.562 56.9849 71.4863 59.0339 70.4107 61.0828 69.8728 63.6696 69.8728 66.7942 69.8728 69.9188 70.4107 72.5056 71.4863 74.5546 72.562 76.5523 73.9451 78.0634 75.6354 79.0878 77.377 80.1123 79.2211 80.6245 81.1676 80.6245Z" fill="url(#fill5)" fill-rule="nonzero" transform="matrix(1.00211 0 0 1 108 58.8946)"/><path d="M123.734 86.7713C119.688 86.7713 116.204 85.9262 113.285 84.2358 110.416 82.5454 108.188 80.2148 106.6 77.2438 105.063 74.2216 104.295 70.7384 104.295 66.7942 104.295 62.85 105.114 59.3924 106.754 56.4215 108.444 53.3993 110.749 51.043 113.669 49.3526 116.64 47.6623 119.995 46.8171 123.734 46.8171 128.396 46.8171 132.314 48.0464 135.49 50.5052 138.666 52.9127 140.664 56.1653 141.483 60.2632L133.492 60.2632C133.031 57.9069 131.879 56.1141 130.035 54.8848 128.242 53.6042 126.116 52.9639 123.657 52.9639 121.608 52.9639 119.713 53.4761 117.972 54.5006 116.23 55.5251 114.821 57.0618 113.746 59.1107 112.67 61.1596 112.132 63.7208 112.132 66.7942 112.132 68.9968 112.414 70.9433 112.977 72.6337 113.592 74.2728 114.412 75.6815 115.436 76.8596 116.46 77.9865 117.664 78.8573 119.047 79.472 120.482 80.0355 122.018 80.3172 123.657 80.3172 125.297 80.3172 126.782 80.0611 128.114 79.5489 129.497 78.9854 130.649 78.1658 131.571 77.0901 132.545 76.0144 133.185 74.7595 133.492 73.3252L141.483 73.3252C140.664 77.3718 138.666 80.6245 135.49 83.0833 132.314 85.542 128.396 86.7713 123.734 86.7713Z" fill="url(#fill6)" fill-rule="nonzero" transform="matrix(1.00211 0 0 1 108 58.8946)"/><path d="M147.784 85.8493 147.784 47.7391 155.467 47.7391 155.467 85.8493ZM151.625 40.9776C150.14 40.9776 148.911 40.5166 147.937 39.5946 146.964 38.6725 146.477 37.4944 146.477 36.0602 146.477 34.6771 146.964 33.5246 147.937 32.6026 148.911 31.6293 150.14 31.1427 151.625 31.1427 153.06 31.1427 154.263 31.6293 155.237 32.6026 156.21 33.5246 156.696 34.6771 156.696 36.0602 156.696 37.4432 156.21 38.6213 155.237 39.5946 154.263 40.5166 153.06 40.9776 151.625 40.9776Z" fill="url(#fill7)" fill-rule="nonzero" transform="matrix(1.00211 0 0 1 108 58.8946)"/><path d="M175.598 86.7713C172.576 86.7713 170.04 86.2591 167.991 85.2346 165.993 84.159 164.508 82.7247 163.535 80.9319 162.562 79.1391 162.075 77.1926 162.075 75.0924 162.075 72.5825 162.715 70.4311 163.996 68.6383 165.328 66.8454 167.223 65.4624 169.682 64.4892 172.192 63.5159 175.188 63.0293 178.671 63.0293L188.737 63.0293C188.737 60.7242 188.378 58.829 187.661 57.3435 186.995 55.8068 185.996 54.6799 184.664 53.9627 183.333 53.1944 181.719 52.8102 179.824 52.8102 177.468 52.8102 175.419 53.3993 173.677 54.5774 171.987 55.7043 170.962 57.4972 170.604 59.9559L162.92 59.9559C163.227 57.1386 164.124 54.7823 165.609 52.887 167.146 50.9406 169.144 49.4551 171.602 48.4306 174.061 47.3549 176.802 46.8171 179.824 46.8171 183.461 46.8171 186.508 47.4574 188.967 48.7379 191.477 50.0185 193.347 51.837 194.576 54.1932 195.806 56.4983 196.42 59.2388 196.42 62.4146L196.42 85.8493 190.043 85.8493 189.275 79.472 188.967 79.472C188.25 80.7014 187.405 81.7771 186.432 82.6991 185.458 83.5699 184.408 84.3126 183.281 84.9273 182.206 85.542 181.002 86.003 179.67 86.3103 178.39 86.6177 177.032 86.7713 175.598 86.7713ZM177.442 80.5477C179.235 80.5477 180.797 80.2148 182.129 79.5489 183.512 78.8829 184.664 77.9865 185.586 76.8596 186.56 75.6815 187.277 74.3753 187.738 72.941 188.25 71.5068 188.532 70.0213 188.583 68.4846L179.44 68.4846C177.186 68.4846 175.367 68.7407 173.984 69.2529 172.653 69.7652 171.679 70.4823 171.065 71.4043 170.45 72.3263 170.143 73.402 170.143 74.6314 170.143 75.8095 170.424 76.8596 170.988 77.7816 171.602 78.6524 172.448 79.3439 173.523 79.8562 174.65 80.3172 175.956 80.5477 177.442 80.5477Z" fill="url(#fill8)" fill-rule="nonzero" transform="matrix(1.00211 0 0 1 108 58.8946)"/><path d="M202.567 85.8493 202.567 32.0647 210.25 32.0647 210.25 85.8493Z" fill="url(#fill9)" fill-rule="nonzero" transform="matrix(1.00211 0 0 1 108 58.8946)"/><path d="M257.581 86.7713C252.254 86.7713 247.644 85.6188 243.751 83.3138 239.909 80.9575 236.938 77.7048 234.838 73.5557 232.789 69.3554 231.764 64.4892 231.764 58.957 231.764 53.4761 232.814 48.6355 234.915 44.4352 237.015 40.2349 239.986 36.9822 243.828 34.6771 247.669 32.3208 252.254 31.1427 257.581 31.1427 263.882 31.1427 269.004 32.6538 272.948 35.676 276.892 38.6982 279.402 42.9497 280.478 48.4306L271.949 48.4306C271.181 45.2548 269.593 42.7448 267.185 40.9008 264.829 39.0055 261.628 38.0579 257.581 38.0579 253.893 38.0579 250.691 38.903 247.977 40.5934 245.313 42.2838 243.238 44.6913 241.753 47.8159 240.319 50.9406 239.602 54.6543 239.602 58.957 239.602 63.311 240.319 67.0503 241.753 70.175 243.238 73.2996 245.313 75.7071 247.977 77.3975 250.691 79.0366 253.893 79.8562 257.581 79.8562 261.628 79.8562 264.88 78.9598 267.339 77.167 269.798 75.3229 271.411 72.8642 272.18 69.7908L280.478 69.7908C279.402 75.118 276.892 79.2927 272.948 82.3149 269.004 85.2859 263.882 86.7713 257.581 86.7713Z" fill="url(#fill10)" fill-rule="nonzero" transform="matrix(1.00211 0 0 1 108 58.8946)"/><path d="M304.22 86.7713C300.634 86.7713 297.382 85.9518 294.462 84.3126 291.593 82.6222 289.314 80.2916 287.624 77.3206 285.933 74.2984 285.088 70.7896 285.088 66.7942 285.088 62.7988 285.933 59.3156 287.624 56.3446 289.365 53.3224 291.67 50.9918 294.539 49.3526 297.459 47.6623 300.737 46.8171 304.374 46.8171 308.011 46.8171 311.263 47.6623 314.132 49.3526 317.051 50.9918 319.331 53.3224 320.97 56.3446 322.66 59.3156 323.506 62.7988 323.506 66.7942 323.506 70.7896 322.66 74.2984 320.97 77.3206 319.28 80.2916 316.975 82.6222 314.055 84.3126 311.135 85.9518 307.857 86.7713 304.22 86.7713ZM304.22 80.6245C306.269 80.6245 308.139 80.1123 309.829 79.0878 311.571 78.0634 312.979 76.5523 314.055 74.5546 315.131 72.5056 315.668 69.9188 315.668 66.7942 315.668 63.6696 315.131 61.0828 314.055 59.0339 313.03 56.9849 311.647 55.4738 309.906 54.5006 308.215 53.4761 306.371 52.9639 304.374 52.9639 302.376 52.9639 300.506 53.4761 298.765 54.5006 297.023 55.4738 295.614 56.9849 294.539 59.0339 293.463 61.0828 292.925 63.6696 292.925 66.7942 292.925 69.9188 293.463 72.5056 294.539 74.5546 295.614 76.5523 296.997 78.0634 298.688 79.0878 300.429 80.1123 302.274 80.6245 304.22 80.6245Z" fill="url(#fill11)" fill-rule="nonzero" transform="matrix(1.00211 0 0 1 108 58.8946)"/><path d="M346.479 86.7713C342.894 86.7713 339.641 85.9518 336.721 84.3126 333.853 82.6222 331.573 80.2916 329.883 77.3206 328.193 74.2984 327.347 70.7896 327.347 66.7942 327.347 62.7988 328.193 59.3156 329.883 56.3446 331.624 53.3224 333.93 50.9918 336.798 49.3526 339.718 47.6623 342.996 46.8171 346.633 46.8171 350.27 46.8171 353.522 47.6623 356.391 49.3526 359.311 50.9918 361.59 53.3224 363.229 56.3446 364.92 59.3156 365.765 62.7988 365.765 66.7942 365.765 70.7896 364.92 74.2984 363.229 77.3206 361.539 80.2916 359.234 82.6222 356.314 84.3126 353.394 85.9518 350.116 86.7713 346.479 86.7713ZM346.479 80.6245C348.528 80.6245 350.398 80.1123 352.088 79.0878 353.83 78.0634 355.238 76.5523 356.314 74.5546 357.39 72.5056 357.928 69.9188 357.928 66.7942 357.928 63.6696 357.39 61.0828 356.314 59.0339 355.29 56.9849 353.907 55.4738 352.165 54.5006 350.475 53.4761 348.631 52.9639 346.633 52.9639 344.635 52.9639 342.766 53.4761 341.024 54.5006 339.282 55.4738 337.874 56.9849 336.798 59.0339 335.722 61.0828 335.185 63.6696 335.185 66.7942 335.185 69.9188 335.722 72.5056 336.798 74.5546 337.874 76.5523 339.257 78.0634 340.947 79.0878 342.689 80.1123 344.533 80.6245 346.479 80.6245Z" fill="url(#fill12)" fill-rule="nonzero" transform="matrix(1.00211 0 0 1 108 58.8946)"/><path d="M370.759 85.8493 370.759 47.7391 377.444 47.7391 378.135 56.0373 378.443 56.0373C379.672 53.3224 380.901 51.3247 382.131 50.0441 383.411 48.7123 384.871 47.8415 386.51 47.4318 388.201 47.022 390.198 46.8171 392.503 46.8171L392.503 54.8848 390.506 54.8848C388.508 54.8848 386.741 55.1409 385.204 55.6531 383.719 56.1141 382.464 56.8312 381.439 57.8045 380.466 58.7777 379.723 60.0327 379.211 61.5694 378.699 63.0549 378.443 64.8221 378.443 66.871L378.443 85.8493Z" fill="url(#fill13)" fill-rule="nonzero" transform="matrix(1.00211 0 0 1 108 58.8946)"/><path d="M411.482 86.7713C407.845 86.7713 404.669 85.9006 401.954 84.159 399.29 82.4174 397.216 80.0355 395.73 77.0133 394.296 73.9911 393.579 70.5847 393.579 66.7942 393.579 63.0037 394.296 59.5973 395.73 56.5751 397.216 53.553 399.342 51.1711 402.108 49.4295 404.925 47.6879 408.28 46.8171 412.173 46.8171 415.554 46.8171 418.371 47.5086 420.625 48.8916 422.879 50.2747 424.62 51.837 425.85 53.5786L425.85 32.0647 433.533 32.0647 433.533 85.8493 427.079 85.8493 426.541 78.7037 426.234 78.7037C425.158 80.4965 423.878 81.982 422.392 83.1601 420.907 84.3382 419.242 85.2346 417.398 85.8493 415.605 86.464 413.633 86.7713 411.482 86.7713ZM413.556 80.2404C416.015 80.2404 418.166 79.6769 420.01 78.55 421.854 77.4231 423.263 75.8608 424.236 73.863 425.261 71.8141 425.773 69.4578 425.773 66.7942 425.773 64.0794 425.261 61.7231 424.236 59.7254 423.263 57.7277 421.854 56.1653 420.01 55.0384 418.166 53.9115 415.989 53.3481 413.479 53.3481 411.021 53.3481 408.869 53.9115 407.025 55.0384 405.232 56.1653 403.824 57.7533 402.799 59.8022 401.826 61.7999 401.339 64.1306 401.339 66.7942 401.339 69.4578 401.826 71.8141 402.799 73.863 403.824 75.8608 405.232 77.4231 407.025 78.55 408.869 79.6769 411.046 80.2404 413.556 80.2404Z" fill="url(#fill14)" fill-rule="nonzero" transform="matrix(1.00211 0 0 1 108 58.8946)"/><path d="M441.37 85.8493 441.37 47.7391 449.054 47.7391 449.054 85.8493ZM445.212 40.9776C443.727 40.9776 442.497 40.5166 441.524 39.5946 440.551 38.6725 440.064 37.4944 440.064 36.0602 440.064 34.6771 440.551 33.5246 441.524 32.6026 442.497 31.6293 443.727 31.1427 445.212 31.1427 446.646 31.1427 447.85 31.6293 448.824 32.6026 449.797 33.5246 450.283 34.6771 450.283 36.0602 450.283 37.4432 449.797 38.6213 448.824 39.5946 447.85 40.5166 446.647 40.9776 445.212 40.9776Z" fill="url(#fill15)" fill-rule="nonzero" transform="matrix(1.00211 0 0 1 108 58.8946)"/><path d="M456.43 85.8493 456.43 47.7391 463.115 47.7391 463.806 53.8091 464.114 53.8091C465.394 51.6577 467.11 49.9673 469.262 48.7379 471.413 47.4574 474.025 46.8171 477.099 46.8171 480.07 46.8171 482.657 47.4574 484.859 48.7379 487.062 49.9673 488.752 51.837 489.93 54.3469 491.16 56.8569 491.774 60.0327 491.774 63.8745L491.774 85.8493 484.091 85.8493 484.091 64.6428C484.091 60.9547 483.297 58.1631 481.709 56.2678 480.172 54.3213 477.867 53.3481 474.794 53.3481 472.745 53.3481 470.901 53.8603 469.262 54.8848 467.674 55.858 466.419 57.2923 465.497 59.1875 464.575 61.0828 464.114 63.3879 464.114 66.1027L464.114 85.8493Z" fill="url(#fill16)" fill-rule="nonzero" transform="matrix(1.00211 0 0 1 108 58.8946)"/><path d="M510.292 86.7713C507.269 86.7713 504.734 86.2591 502.685 85.2346 500.687 84.159 499.202 82.7247 498.228 80.9319 497.255 79.1391 496.769 77.1926 496.769 75.0924 496.769 72.5825 497.409 70.4311 498.689 68.6383 500.021 66.8454 501.917 65.4624 504.375 64.4892 506.885 63.5159 509.882 63.0293 513.365 63.0293L523.43 63.0293C523.43 60.7242 523.072 58.829 522.355 57.3435 521.689 55.8068 520.69 54.6799 519.358 53.9627 518.026 53.1944 516.413 52.8102 514.517 52.8102 512.161 52.8102 510.112 53.3993 508.371 54.5774 506.68 55.7043 505.656 57.4972 505.297 59.9559L497.614 59.9559C497.921 57.1386 498.818 54.7823 500.303 52.887 501.84 50.9406 503.837 49.4551 506.296 48.4306 508.755 47.3549 511.495 46.8171 514.517 46.8171 518.154 46.8171 521.202 47.4574 523.661 48.7379 526.171 50.0185 528.04 51.837 529.27 54.1932 530.499 56.4983 531.114 59.2388 531.114 62.4146L531.114 85.8493 524.737 85.8493 523.968 79.472 523.661 79.472C522.944 80.7014 522.099 81.7771 521.125 82.6991 520.152 83.5699 519.102 84.3126 517.975 84.9273 516.899 85.542 515.696 86.003 514.364 86.3103 513.083 86.6177 511.726 86.7713 510.292 86.7713ZM512.136 80.5477C513.928 80.5477 515.491 80.2148 516.823 79.5489 518.206 78.8829 519.358 77.9865 520.28 76.8596 521.253 75.6815 521.971 74.3753 522.432 72.941 522.944 71.5068 523.226 70.0213 523.277 68.4846L514.133 68.4846C511.879 68.4846 510.061 68.7407 508.678 69.2529 507.346 69.7652 506.373 70.4823 505.758 71.4043 505.144 72.3263 504.836 73.402 504.836 74.6314 504.836 75.8095 505.118 76.8596 505.681 77.7816 506.296 78.6524 507.141 79.3439 508.217 79.8562 509.344 80.3172 510.65 80.5477 512.136 80.5477Z" fill="url(#fill17)" fill-rule="nonzero" transform="matrix(1.00211 0 0 1 108 58.8946)"/><path d="M551.859 85.8493C549.452 85.8493 547.326 85.4651 545.482 84.6968 543.689 83.9284 542.306 82.6479 541.333 80.855 540.411 79.0622 539.95 76.6291 539.95 73.5557L539.95 53.5017 533.342 53.5017 533.342 47.7391 539.95 47.7391 540.795 38.2115 547.633 38.2115 547.633 47.7391 558.467 47.7391 558.467 53.5017 547.633 53.5017 547.633 73.6325C547.633 76.04 548.069 77.6536 548.94 78.4732 549.862 79.2927 551.45 79.7025 553.703 79.7025L558.006 79.7025 558.006 85.8493Z" fill="url(#fill18)" fill-rule="nonzero" transform="matrix(1.00211 0 0 1 108 58.8946)"/><path d="M563.231 85.8493 563.231 47.7391 570.914 47.7391 570.914 85.8493ZM567.073 40.9776C565.587 40.9776 564.358 40.5166 563.385 39.5946 562.411 38.6725 561.925 37.4944 561.925 36.0602 561.925 34.6771 562.411 33.5246 563.385 32.6026 564.358 31.6293 565.587 31.1427 567.073 31.1427 568.507 31.1427 569.711 31.6293 570.684 32.6026 571.657 33.5246 572.144 34.6771 572.144 36.0602 572.144 37.4432 571.657 38.6213 570.684 39.5946 569.711 40.5166 568.507 40.9776 567.073 40.9776Z" fill="url(#fill19)" fill-rule="nonzero" transform="matrix(1.00211 0 0 1 108 58.8946)"/><path d="M596.27 86.7713C592.684 86.7713 589.432 85.9518 586.512 84.3126 583.643 82.6222 581.364 80.2916 579.674 77.3206 577.983 74.2984 577.138 70.7896 577.138 66.7942 577.138 62.7988 577.983 59.3156 579.674 56.3446 581.415 53.3224 583.72 50.9918 586.589 49.3526 589.509 47.6623 592.787 46.8171 596.424 46.8171 600.061 46.8171 603.313 47.6623 606.182 49.3526 609.102 50.9918 611.381 53.3224 613.02 56.3446 614.71 59.3156 615.556 62.7988 615.556 66.7942 615.556 70.7896 614.71 74.2984 613.02 77.3206 611.33 80.2916 609.025 82.6222 606.105 84.3126 603.185 85.9518 599.907 86.7713 596.27 86.7713ZM596.27 80.6245C598.319 80.6245 600.189 80.1123 601.879 79.0878 603.621 78.0634 605.029 76.5523 606.105 74.5546 607.181 72.5056 607.718 69.9188 607.718 66.7942 607.718 63.6696 607.181 61.0828 606.105 59.0339 605.08 56.9849 603.697 55.4738 601.956 54.5006 600.266 53.4761 598.421 52.9639 596.424 52.9639 594.426 52.9639 592.556 53.4761 590.815 54.5006 589.073 55.4738 587.664 56.9849 586.589 59.0339 585.513 61.0828 584.975 63.6696 584.975 66.7942 584.975 69.9188 585.513 72.5056 586.589 74.5546 587.664 76.5523 589.048 78.0634 590.738 79.0878 592.479 80.1123 594.323 80.6245 596.27 80.6245Z" fill="url(#fill20)" fill-rule="nonzero" transform="matrix(1.00211 0 0 1 108 58.8946)"/><path d="M620.55 85.8493 620.55 47.7391 627.234 47.7391 627.926 53.8091 628.233 53.8091C629.514 51.6577 631.23 49.9673 633.381 48.7379 635.533 47.4574 638.145 46.8171 641.219 46.8171 644.189 46.8171 646.776 47.4574 648.979 48.7379 651.181 49.9673 652.872 51.837 654.05 54.3469 655.279 56.8569 655.894 60.0327 655.894 63.8745L655.894 85.8493 648.211 85.8493 648.211 64.6428C648.211 60.9547 647.417 58.1631 645.829 56.2678 644.292 54.3213 641.987 53.3481 638.913 53.3481 636.865 53.3481 635.02 53.8603 633.381 54.8848 631.793 55.858 630.538 57.2923 629.616 59.1875 628.694 61.0828 628.233 63.3879 628.233 66.1027L628.233 85.8493Z" fill="url(#fill21)" fill-rule="nonzero" transform="matrix(1.00211 0 0 1 108 58.8946)"/><path d="M677.408 85.8493 677.408 32.0647 685.091 32.0647 685.091 79.7794 709.679 79.7794 709.679 85.8493Z" fill="url(#fill22)" fill-rule="nonzero" transform="matrix(1.00211 0 0 1 108 58.8946)"/><path d="M726.659 86.7713C723.637 86.7713 721.101 86.2591 719.052 85.2346 717.055 84.159 715.569 82.7247 714.596 80.9319 713.623 79.1391 713.136 77.1926 713.136 75.0924 713.136 72.5825 713.776 70.4311 715.057 68.6383 716.389 66.8454 718.284 65.4624 720.743 64.4892 723.253 63.5159 726.249 63.0293 729.733 63.0293L739.798 63.0293C739.798 60.7242 739.439 58.829 738.722 57.3435 738.056 55.8068 737.058 54.6799 735.726 53.9627 734.394 53.1944 732.78 52.8102 730.885 52.8102 728.529 52.8102 726.48 53.3993 724.738 54.5774 723.048 55.7043 722.023 57.4972 721.665 59.9559L713.981 59.9559C714.289 57.1386 715.185 54.7823 716.671 52.887 718.207 50.9406 720.205 49.4551 722.664 48.4306 725.122 47.3549 727.863 46.8171 730.885 46.8171 734.522 46.8171 737.57 47.4574 740.029 48.7379 742.538 50.0185 744.408 51.837 745.637 54.1932 746.867 56.4983 747.482 59.2388 747.482 62.4146L747.482 85.8493 741.104 85.8493 740.336 79.472 740.029 79.472C739.311 80.7014 738.466 81.7771 737.493 82.6991 736.52 83.5699 735.47 84.3126 734.343 84.9273 733.267 85.542 732.063 86.003 730.731 86.3103 729.451 86.6177 728.093 86.7713 726.659 86.7713ZM728.503 80.5477C730.296 80.5477 731.858 80.2148 733.19 79.5489 734.573 78.8829 735.726 77.9865 736.648 76.8596 737.621 75.6815 738.338 74.3753 738.799 72.941 739.311 71.5068 739.593 70.0213 739.644 68.4846L730.501 68.4846C728.247 68.4846 726.429 68.7407 725.046 69.2529 723.714 69.7652 722.741 70.4823 722.126 71.4043 721.511 72.3263 721.204 73.402 721.204 74.6314 721.204 75.8095 721.486 76.8596 722.049 77.7816 722.664 78.6524 723.509 79.3439 724.585 79.8562 725.712 80.3172 727.018 80.5477 728.503 80.5477Z" fill="url(#fill23)" fill-rule="nonzero" transform="matrix(1.00211 0 0 1 108 58.8946)"/><path d="M776.295 86.7713C774.194 86.7713 772.222 86.464 770.378 85.8493 768.534 85.2346 766.869 84.3382 765.384 83.1601 763.95 81.982 762.669 80.4965 761.542 78.7037L761.235 78.7037 760.697 85.8493 754.243 85.8493 754.243 32.0647 761.926 32.0647 761.926 53.5786C763.156 51.837 764.897 50.2747 767.151 48.8916 769.405 47.5086 772.222 46.8171 775.603 46.8171 779.547 46.8171 782.902 47.6879 785.668 49.4295 788.435 51.1711 790.535 53.553 791.969 56.5751 793.454 59.5973 794.197 63.0037 794.197 66.7942 794.197 70.5847 793.454 73.9911 791.969 77.0133 790.535 80.0355 788.46 82.4174 785.745 84.159 783.082 85.9006 779.931 86.7713 776.295 86.7713ZM774.22 80.2404C776.73 80.2404 778.881 79.6769 780.674 78.55 782.518 77.4231 783.927 75.8608 784.9 73.863 785.925 71.8141 786.437 69.4578 786.437 66.7942 786.437 64.0794 785.925 61.7231 784.9 59.7254 783.927 57.7277 782.518 56.1653 780.674 55.0384 778.881 53.9115 776.73 53.3481 774.22 53.3481 771.761 53.3481 769.61 53.9115 767.766 55.0384 765.922 56.1653 764.488 57.7277 763.463 59.7254 762.49 61.7231 762.003 64.0794 762.003 66.7942 762.003 69.4578 762.49 71.8141 763.463 73.863 764.488 75.8608 765.922 77.4231 767.766 78.55 769.61 79.6769 771.761 80.2404 774.22 80.2404Z" fill="url(#fill24)" fill-rule="nonzero" transform="matrix(1.00211 0 0 1 108 58.8946)"/><path d="M87.3517 490.2 86.9654 489.985C91.4725 482.516 95.164 474.575 97.8682 466.334 107.054 438.518 103.062 414.824 101.56 405.896 99.113 391.344 94.9064 384.39 87.2229 371.771 82.1578 363.4 75.8479 353.012 67.6922 336.486 67.0912 335.242 66.104 333.525 64.9021 331.335 59.5794 321.72 49.6638 303.821 45.5431 284.977 45.1997 283.389 42.2379 269.095 43.5256 250.38 45.1997 226.299 52.7973 205.652 66.1898 188.997 94.9923 153.155 143.197 146.03 169.08 142.252L169.166 142.252C169.424 142.209 169.638 142.166 169.939 142.124 183.074 140.278 250.594 133.624 292.617 184.447 292.746 184.576 292.918 184.791 293.133 185.091 307.212 202.39 315.84 222.178 318.759 244.027 320.905 259.995 319.188 272.4 318.415 275.49L318.415 275.662C317.428 279.354 317.085 283.131 317.428 286.908 317.428 286.908 317.514 287.896 317.643 288.883 319.102 298.927 339.792 332.924 348.591 347.089 349.149 348.978 349.063 350.523 348.377 351.682 347.132 353.742 344.127 354 341.723 354.171 341.466 354.171 341.251 354.171 341.036 354.214 339.62 354.343 327.043 355.588 323.223 360.739 321.205 363.529 321.377 368.036 323.824 374.131L323.824 374.26C323.867 374.26 318.587 381.214 318.587 381.214L324.253 389.37 324.124 389.498C320.905 392.675 318.329 396.581 316.612 400.788 314.852 405.08 314.037 409.845 314.166 414.481 314.681 418.773 315.625 433.367 305.967 441.137 302.447 443.97 298.713 444.871 295.107 445.73 286.866 447.704 281.028 446.803 274.289 445.73 271.499 445.3 268.623 444.871 265.36 444.571 256.561 443.841 243.254 442.725 234.326 448.692 220.89 457.62 221.191 479.812 221.963 488.955L221.534 488.955C220.762 479.769 220.504 457.405 234.111 448.348 243.211 442.296 256.604 443.412 265.446 444.141 268.708 444.399 271.584 444.871 274.374 445.3 281.071 446.331 286.866 447.232 295.064 445.3 298.627 444.442 302.275 443.583 305.752 440.793 315.239 433.196 314.294 418.773 313.822 414.523 313.651 409.802 314.509 404.994 316.312 400.616 318.029 396.409 320.604 392.546 323.781 389.327L318.115 381.214 323.437 374.174C320.991 367.95 320.819 363.357 322.922 360.481 326.828 355.159 339.577 353.914 341.036 353.785 341.251 353.785 341.509 353.785 341.766 353.742 344.084 353.57 346.917 353.356 348.076 351.424 348.72 350.394 348.763 349.02 348.248 347.261 339.405 333.095 318.759 299.056 317.256 288.926 317.127 287.939 316.999 286.951 316.999 286.908 316.655 283.088 316.999 279.268 317.943 275.533L317.943 275.362C318.759 272.314 320.476 259.952 318.286 244.027 315.325 222.307 306.74 202.519 292.746 185.306 292.489 185.005 292.317 184.791 292.231 184.662 250.38 134.054 183.031 140.664 169.939 142.51 169.638 142.553 169.424 142.596 169.166 142.639L169.08 142.639C143.24 146.459 95.164 153.542 66.4903 189.255 53.1837 205.824 45.586 226.428 43.9549 250.423 42.6671 269.052 45.6289 283.303 45.9723 284.891 50.0502 303.649 59.9658 321.506 65.2455 331.121 66.4474 333.31 67.4346 335.07 68.0356 336.315 76.1913 352.798 82.5012 363.186 87.5663 371.556 95.2498 384.219 99.4564 391.215 101.946 405.853 103.448 414.824 107.483 438.561 98.2546 466.505 95.5503 474.747 91.8588 482.731 87.3088 490.243Z" stroke="url(#stroke25)" stroke-width="6.86795" stroke-linecap="round" stroke-linejoin="round" stroke-miterlimit="4" fill="url(#fill26)" fill-rule="nonzero" transform="matrix(1.00211 0 0 1 108 58.8946)"/><path d="M580.213 488.268C579.011 476.249 574.59 447.79 559.523 443.498 556.432 442.596 552.011 442.854 543.212 443.412 537.03 443.798 533.511 444.356 530.163 444.914 526.9 445.472 523.81 445.987 518.573 446.245 507.97 446.803 501.575 447.103 495.222 443.283 490.071 440.192 486.379 435.857 484.834 431.049 483.675 427.53 483.761 423.666 484.276 415.639 484.448 412.935 484.662 411.175 484.834 409.931 485.092 407.999 485.22 407.312 484.662 405.896 483.503 402.977 480.928 401.045 478.696 399.371 476.249 397.525 474.146 395.937 474.36 393.533 474.36 393.147 474.489 392.718 474.661 392.331L474.661 392.246C474.704 392.246 483.117 383.618 483.117 383.618L469.596 373.487 469.81 373.316C474.532 369.195 476.635 364.001 475.305 359.752 474.575 357.434 472.987 355.931 472.343 355.416 470.24 353.656 468.051 353.57 465.003 353.442 462.642 353.356 459.68 353.227 455.989 352.24 450.924 350.909 448.477 349.879 447.146 347.389 446.159 345.501 446.073 343.097 446.932 340.435L446.932 340.35C464.659 317.771 475.691 301.374 478.395 295.665 479.125 294.206 480.799 290.729 480.928 286.093 480.971 284.333 480.842 281.629 479.855 278.624L479.855 278.538C478.868 275.619 477.58 260.596 481.872 240.378 485.521 223.251 494.235 198.441 515.01 177.665 541.323 151.352 572.1 145.858 592.446 142.252 610.861 138.99 639.578 137.144 671.642 146.931 686.752 151.567 707.441 157.877 726.586 175.905 743.799 192.088 755.217 213.293 760.496 238.876 764.231 257.076 763.801 272.4 763.201 279.869 761.226 304.636 752.169 324.425 749.207 330.949 743.841 342.668 739.377 348.677 734.613 355.073 730.02 361.254 725.255 367.65 718.945 379.797L718.559 380.527C708.944 399.071 698.985 418.215 700.531 442.382 701.518 457.877 706.84 473.116 716.37 487.624L716.026 487.839C706.454 473.244 701.089 457.963 700.101 442.382 698.556 418.129 708.557 398.899 718.173 380.313L718.559 379.583C724.869 367.392 729.633 360.996 734.269 354.815 738.991 348.462 743.498 342.453 748.821 330.777 751.783 324.296 760.797 304.55 762.771 279.869 763.372 272.4 763.801 257.119 760.067 238.962 754.787 213.464 743.455 192.345 726.285 176.206 707.184 158.22 686.58 151.953 671.513 147.317 639.492 137.531 610.904 139.376 592.489 142.639 572.186 146.244 541.538 151.696 515.311 177.923 494.621 198.612 485.95 223.337 482.302 240.421 478.009 260.596 479.297 275.49 480.198 278.366L480.198 278.452C481.271 281.5 481.4 284.29 481.357 286.093 481.185 290.815 479.511 294.334 478.782 295.837 475.949 301.717 465.089 317.814 447.318 340.564 446.502 343.097 446.588 345.415 447.49 347.175 448.734 349.493 451.138 350.48 456.032 351.811 459.68 352.798 462.599 352.927 464.96 353.012 467.965 353.141 470.368 353.227 472.558 355.073 473.244 355.631 474.876 357.176 475.648 359.623 477.022 364.001 474.918 369.281 470.197 373.487L483.718 383.575 474.961 392.503C474.833 392.847 474.747 393.19 474.704 393.533 474.532 395.722 476.55 397.225 478.868 398.985 481.143 400.702 483.761 402.676 484.963 405.724 485.564 407.226 485.435 408.042 485.177 409.973 485.006 411.218 484.748 412.935 484.619 415.639 484.147 423.581 484.061 427.401 485.177 430.878 486.68 435.557 490.328 439.806 495.394 442.854 501.36 446.459 507.112 446.331 518.53 445.773 523.767 445.515 526.814 445 530.077 444.442 533.468 443.884 536.945 443.283 543.169 442.94 552.011 442.424 556.475 442.167 559.652 443.068 574.976 447.49 579.44 476.12 580.642 488.225L580.213 488.225Z" stroke="url(#stroke27)" stroke-width="6.86795" stroke-linecap="round" stroke-linejoin="round" stroke-miterlimit="4" fill="url(#fill28)" fill-rule="nonzero" transform="matrix(1.00211 0 0 1 108 58.8946)"/><path d="M555.703 390.829C530.935 390.829 509.001 386.966 494.149 384.347 471.871 380.398 459.981 375.848 449.507 371.813 437.316 367.135 427.658 363.4 406.582 362.671 383.961 361.855 371.298 365.375 357.949 369.066 344.857 372.715 331.335 376.449 307.083 377.136 295.15 377.479 282.487 376.793 269.481 375.076 246.345 372.071 223.895 366.19 202.776 357.52 173.072 345.372 142.381 332.752 129.074 301.245 122.078 284.676 120.661 269.481 124.825 256.003 127.744 246.602 133.496 238.017 141.909 230.463 149.335 223.766 158.864 217.886 170.282 212.906 188.783 204.794 212.305 199.213 234.755 197.625 269.867 195.093 292.188 206.768 315.797 219.13 339.792 231.707 364.602 244.671 404.865 243.555 442.038 242.481 472.987 231.75 473.287 231.664 485.993 227.2 492.646 223.466 499.686 219.517 506.425 215.739 513.379 211.79 526.213 206.94 545.186 199.771 573.903 188.911 607.384 192.946 636.058 196.423 677.909 211.962 678.596 231.021 678.982 241.88 666.32 254.243 643.87 264.888 621.978 275.276 594.292 282.101 569.825 283.217 560.339 283.646 535.485 279.998 490.328 273.344 463.028 269.352 446.159 266.691 434.999 264.974 416.283 262.055 414.352 261.755 407.441 261.883 392.675 262.184 386.622 263.901 357.434 272.185 344.041 275.963 325.712 281.199 299.485 288.239 239.648 304.336 226.771 306.353 212.692 307.813 188.225 310.302 163.285 310.002 138.647 306.954L138.647 306.525C163.328 309.573 188.225 309.873 212.649 307.384 226.728 305.967 239.563 303.907 299.357 287.81 325.584 280.727 343.912 275.533 357.305 271.756 386.537 263.472 392.632 261.755 407.441 261.454 414.395 261.325 416.369 261.626 435.084 264.545 446.245 266.305 463.114 268.923 490.414 272.915 535.528 279.525 560.381 283.174 569.825 282.788 594.206 281.715 621.85 274.89 643.698 264.502 654.215 259.522 662.929 253.899 668.895 248.276 675.248 242.267 678.381 236.472 678.167 231.021 677.48 212.22 635.843 196.81 607.341 193.376 573.946 189.341 545.315 200.158 526.385 207.326 513.594 212.177 506.64 216.083 499.944 219.86 492.904 223.852 486.251 227.587 473.502 232.051 473.202 232.18 442.167 242.911 404.951 243.984 403.277 244.027 401.646 244.07 400.015 244.07 362.499 244.07 338.719 231.621 315.668 219.56 292.102 207.197 269.824 195.565 234.841 198.097 212.434 199.728 188.954 205.266 170.497 213.336 159.165 218.315 149.635 224.196 142.252 230.849 133.882 238.361 128.173 246.903 125.297 256.217 121.176 269.567 122.593 284.676 129.547 301.159 142.767 332.494 173.373 345.028 202.991 357.176 224.067 365.804 246.473 371.685 269.567 374.689 282.573 376.363 295.193 377.05 307.083 376.75 331.25 376.106 344.771 372.329 357.82 368.723 371.255 364.988 383.918 361.469 406.582 362.284 427.744 363.057 437.402 366.748 449.636 371.47 460.109 375.505 471.957 380.055 494.192 384.004 510.074 386.794 534.069 391.044 560.897 390.443 592.961 389.713 621.249 382.115 645.029 367.864 666.706 354.858 684.863 336.444 698.985 313.092L699.372 313.307C685.206 336.744 667.006 355.202 645.286 368.251 621.463 382.545 593.09 390.142 560.94 390.872 559.18 390.872 557.42 390.915 555.703 390.915Z" stroke="url(#stroke29)" stroke-width="6.86795" stroke-linecap="round" stroke-linejoin="round" stroke-miterlimit="4" fill="url(#fill30)" fill-rule="nonzero" transform="matrix(1.00211 0 0 1 108 58.8946)"/><path d="M675.849 281.629C666.706 281.629 656.447 280.684 645.115 278.839 608.629 272.786 582.874 260.51 563.987 251.367 548.019 259.222 535.356 263.214 523.981 266.09 505.953 270.597 486.637 271.713 466.591 269.352L466.591 268.923C486.637 271.284 505.91 270.168 523.896 265.661 535.185 262.828 547.719 258.879 563.515 251.109 563.386 251.023 563.257 250.981 563.129 250.895 561.154 249.95 559.265 249.049 557.463 248.147 538.833 239.262 510.675 225.827 477.623 215.654 438.304 203.549 400.788 198.913 366.19 201.832 345.887 203.549 326.743 205.137 310.002 209.258 291.501 213.808 277.637 221.019 266.39 231.965 265.36 232.952 264.33 233.982 263.257 235.098 257.033 241.494 249.264 249.392 236.515 252.397 218.529 256.647 197.668 250.294 185.692 237.03 181.185 232.008 179.597 227.587 177.923 222.865 176.163 218.014 174.403 212.949 169.123 206.811 157.791 193.59 137.144 182.559 116.583 187.752 114.051 188.396 91.4725 194.62 86.1069 213.979 82.4154 227.286 88.6824 239.949 94.563 248.233 110.402 270.425 146.158 278.71 187.924 269.824L188.01 270.254C146.073 279.182 110.145 270.812 94.2196 248.491 88.2531 240.121 81.9432 227.329 85.6776 213.851 91.1291 194.277 113.879 187.967 116.455 187.323 137.144 182.086 157.963 193.204 169.424 206.511 174.746 212.735 176.549 217.8 178.309 222.693 179.983 227.329 181.528 231.75 185.993 236.687 191.916 243.297 200.072 248.233 209.515 250.938 218.487 253.556 228.059 253.899 236.429 251.925 249.049 248.963 256.775 241.065 262.956 234.712 264.03 233.596 265.06 232.523 266.09 231.536 277.379 220.547 291.287 213.293 309.916 208.743 326.7 204.622 345.887 202.991 366.19 201.274 400.831 198.355 438.39 203.034 477.794 215.138 510.889 225.312 539.048 238.747 557.72 247.675 559.523 248.534 561.412 249.435 563.386 250.423 563.601 250.551 563.858 250.637 564.073 250.766 579.526 243.125 598.112 231.879 621.721 214.537 622.708 213.808 623.695 213.078 624.683 212.348 634.727 204.879 645.115 197.153 660.954 194.492 674.175 192.26 689.756 193.719 702.634 198.355 721.864 205.309 728.904 216.598 731.393 224.839 733.668 232.308 733.325 240.722 730.449 249.221 727.788 257.033 723.109 264.33 717.314 269.739 708.901 277.551 694.865 281.543 675.978 281.543ZM564.502 251.109C583.346 260.252 608.972 272.4 645.201 278.409 679.712 284.118 704.523 281.028 716.885 269.524 722.637 264.158 727.273 256.947 729.934 249.178 732.81 240.764 733.11 232.437 730.878 225.054 723.023 199.128 685.206 190.929 660.954 195.007 645.201 197.625 634.856 205.352 624.854 212.778 623.867 213.507 622.88 214.237 621.893 214.967 598.456 232.222 579.912 243.426 564.502 251.066Z" stroke="url(#stroke31)" stroke-width="6.86795" stroke-linecap="round" stroke-linejoin="round" stroke-miterlimit="4" fill="url(#fill32)" fill-rule="nonzero" transform="matrix(1.00211 0 0 1 108 58.8946)"/><path d="M189.512 269.867 189.384 269.438C206.639 264.888 222.994 258.235 237.974 249.607 238.532 249.264 239.09 248.963 239.691 248.62L239.906 249.006C239.348 249.349 238.79 249.65 238.189 249.993 223.208 258.621 206.811 265.317 189.512 269.867Z" stroke="url(#stroke33)" stroke-width="6.86795" stroke-linecap="round" stroke-linejoin="round" stroke-miterlimit="4" fill="url(#fill34)" fill-rule="nonzero" transform="matrix(1.00211 0 0 1 108 58.8946)"/><path d="M131.392 305.838C120.962 305.838 109.501 303.349 100.1 298.927 89.0687 293.733 82.3295 286.737 81.6427 279.74 81.1705 274.804 83.5743 269.309 88.6394 263.815 100.186 251.324 122.464 241.795 139.419 242.052 140.793 242.052 144.699 242.353 152.468 242.911 168.136 244.027 175.948 244.885 180.584 245.4 184.576 245.83 186.594 246.087 189.598 246.044 205.051 245.83 230.591 238.661 237.588 219.817 241.28 209.945 240.206 195.479 231.106 186.894 218.401 174.875 196.981 181.829 187.409 187.194 176.807 193.161 170.797 202.132 167.664 208.657L167.277 208.485C170.454 201.918 176.506 192.861 187.194 186.851 193.547 183.288 201.488 180.756 208.485 180.026 217.929 179.082 225.827 181.357 231.407 186.594 240.636 195.307 241.709 209.987 237.974 219.989 230.892 239.005 205.137 246.259 189.555 246.516 186.551 246.559 184.533 246.345 180.498 245.872 175.819 245.357 168.05 244.499 152.383 243.383 144.613 242.825 140.707 242.567 139.333 242.524 122.507 242.267 100.358 251.753 88.897 264.158 83.9177 269.567 81.5139 274.932 81.9861 279.74 82.63 286.608 89.2833 293.476 100.186 298.584 110.703 303.52 123.752 306.053 135.084 305.366 167.106 303.392 185.692 276.306 189.083 270.855L189.427 271.069C185.993 276.521 167.32 303.778 135.084 305.752 133.839 305.838 132.594 305.881 131.307 305.881Z" stroke="url(#stroke35)" stroke-width="6.86795" stroke-linecap="round" stroke-linejoin="round" stroke-miterlimit="4" fill="url(#fill36)" fill-rule="nonzero" transform="matrix(1.00211 0 0 1 108 58.8946)"/><path d="M465.818 315.453C453.456 315.453 441.781 313.736 431.221 310.345 421.735 307.298 413.923 303.263 405.595 299.013 390.743 291.416 375.376 283.517 349.321 280.856 341.552 280.083 334.812 279.955 328.288 279.826 316.269 279.611 304.894 279.397 289.441 274.89 272.271 269.867 256.046 261.282 241.28 249.392L241.537 249.049C256.303 260.896 272.443 269.438 289.57 274.46 304.98 278.967 316.312 279.182 328.288 279.397 334.812 279.525 341.552 279.611 349.364 280.427 375.505 283.088 390.915 290.986 405.767 298.627 414.051 302.876 421.907 306.911 431.35 309.916 476.721 324.51 533.167 305.667 568.966 280.47 574.461 276.607 579.14 272.743 583.69 269.009 593.219 261.154 603.049 253.041 620.691 244.756 622.536 243.898 624.382 242.997 626.314 242.138 612.75 221.448 601.761 207.498 586.008 201.145 575.92 197.11 558.793 194.449 534.24 204.837L534.069 204.45C558.75 194.019 576.006 196.681 586.179 200.759 602.061 207.154 613.093 221.148 626.7 241.966 641.337 235.313 658.937 228.66 679.669 232.222 691.044 234.154 718.344 241.194 726.715 264.158 728.775 269.867 729.719 276.649 729.247 282.702 728.646 290.342 725.899 297.039 721.306 302.061 711.433 312.792 696.753 312.492 693.92 312.32 673.23 311.118 658.937 291.416 647.433 275.619 644.471 271.541 643.312 269.481 641.681 266.691 640.393 264.459 638.805 261.669 635.8 256.904 632.538 251.796 629.49 246.989 626.528 242.481 624.597 243.383 622.665 244.241 620.862 245.143 603.263 253.384 593.906 261.154 583.947 269.309 579.397 273.044 574.718 276.907 569.181 280.813 549.565 294.592 525.87 305.28 502.39 310.903 489.77 313.908 477.451 315.453 465.818 315.453ZM626.958 242.31C629.877 246.774 632.924 251.581 636.186 256.689 639.234 261.454 640.822 264.244 642.11 266.476 643.698 269.266 644.857 271.327 647.819 275.362 659.237 291.115 673.488 310.689 693.963 311.891 696.753 312.062 711.305 312.363 721.006 301.76 727.273 294.935 732.424 281.028 726.328 264.287 718.044 241.494 690.915 234.54 679.626 232.609 659.022 229.089 641.509 235.656 626.958 242.267Z" stroke="url(#stroke37)" stroke-width="6.86795" stroke-linecap="round" stroke-linejoin="round" stroke-miterlimit="4" fill="url(#fill38)" fill-rule="nonzero" transform="matrix(1.00211 0 0 1 108 58.8946)"/><path d="M350.566 331.936C324.596 331.936 304.078 325.798 287.209 320.776 252.998 310.56 220.59 294.163 190.886 271.971L191.144 271.627C220.804 293.776 253.17 310.131 287.338 320.347 306.353 326.013 330.005 333.095 360.868 331.164 386.579 329.576 411.476 322.364 434.827 309.787L435.041 310.174C411.648 322.793 386.665 330.005 360.911 331.593 357.391 331.808 353.914 331.936 350.566 331.936Z" stroke="url(#stroke39)" stroke-width="6.86795" stroke-linecap="round" stroke-linejoin="round" stroke-miterlimit="4" fill="url(#fill40)" fill-rule="nonzero" transform="matrix(1.00211 0 0 1 108 58.8946)"/><path d="M424.139 401.474C415.425 401.474 406.497 400.831 398.169 399.457 381.085 396.667 358.464 389.413 344.428 382.244L344.256 382.158C341.809 380.913 335.327 377.608 326.27 376.578 320.089 375.891 313.736 376.363 307.341 378.038L307.212 377.608C313.651 375.934 320.046 375.462 326.27 376.149 335.413 377.179 341.938 380.527 344.428 381.772L344.599 381.858C358.636 388.983 381.171 396.238 398.212 399.028 429.247 404.136 462.47 399.028 472.815 391.258L473.03 391.087C474.618 389.885 479.383 386.279 486.422 384.863 489.985 384.176 493.677 384.133 497.411 384.734L497.325 385.163C493.634 384.562 489.985 384.605 486.465 385.292 479.511 386.665 474.79 390.228 473.244 391.43L473.03 391.602C464.745 397.826 444.914 401.474 424.053 401.474Z" stroke="url(#stroke41)" stroke-width="6.86795" stroke-linecap="round" stroke-linejoin="round" stroke-miterlimit="4" fill="url(#fill42)" fill-rule="nonzero" transform="matrix(1.00211 0 0 1 108 58.8946)"/><path d="M645.93 324.253C636.916 324.253 628.074 323.223 619.617 321.162 596.825 315.582 578.496 302.619 569.267 285.578 558.536 265.704 558.922 238.661 570.254 216.684 571.07 215.053 591.158 177.021 630.349 175.562 630.778 175.562 631.25 175.562 631.722 175.519 640.565 175.133 657.005 174.446 669.238 186.594 686.451 203.678 679.712 230.548 679.412 231.707L678.982 231.579C679.283 230.463 685.979 203.806 668.938 186.894 656.79 174.832 640.479 175.562 631.722 175.948 631.25 175.948 630.778 175.948 630.349 175.991 591.373 177.493 571.456 215.267 570.598 216.898 559.308 238.79 558.922 265.661 569.61 285.406 578.753 302.318 596.996 315.196 619.66 320.776 643.741 326.7 670.955 324.081 696.367 313.393L696.539 313.779C679.97 320.733 662.628 324.296 645.887 324.296Z" stroke="url(#stroke43)" stroke-width="6.86795" stroke-linecap="round" stroke-linejoin="round" stroke-miterlimit="4" fill="url(#fill44)" fill-rule="nonzero" transform="matrix(1.00211 0 0 1 108 58.8946)"/><path d="" stroke="url(#stroke45)" stroke-width="6.86795" stroke-linecap="round" stroke-linejoin="round" stroke-miterlimit="4" fill="none" fill-rule="nonzero" transform="matrix(1.00211 0 0 1 108 58.8946)"/><path d="M180.412 210.245C180.412 217.333 174.666 223.079 167.578 223.079 160.49 223.079 154.743 217.333 154.743 210.245 154.743 203.157 160.49 197.411 167.578 197.411 174.666 197.411 180.412 203.157 180.412 210.245Z" fill="url(#fill46)" fill-rule="nonzero" transform="matrix(1.00211 0 0 1 108 58.8946)"/><path d="M200.201 270.082C200.201 277.17 194.454 282.916 187.366 282.916 180.278 282.916 174.532 277.17 174.532 270.082 174.532 262.994 180.278 257.247 187.366 257.247 194.454 257.247 200.201 262.994 200.201 270.082Z" fill="url(#fill47)" fill-rule="nonzero" transform="matrix(1.00211 0 0 1 108 58.8946)"/><path d="M252.612 248.791C252.612 255.88 246.865 261.626 239.777 261.626 232.689 261.626 226.943 255.88 226.943 248.791 226.943 241.703 232.689 235.957 239.777 235.957 246.865 235.957 252.612 241.703 252.612 248.791Z" fill="url(#fill48)" fill-rule="nonzero" transform="matrix(1.00211 0 0 1 108 58.8946)"/><path d="M145.643 308.242C145.643 314.572 140.512 319.703 134.182 319.703 127.853 319.703 122.722 314.572 122.722 308.242 122.722 301.912 127.853 296.781 134.182 296.781 140.512 296.781 145.643 301.912 145.643 308.242Z" fill="url(#fill49)" fill-rule="nonzero" transform="matrix(1.00211 0 0 1 108 58.8946)"/><path d="M277.379 229.819C277.379 235.485 272.786 240.078 267.12 240.078 261.454 240.078 256.861 235.485 256.861 229.819 256.861 224.153 261.454 219.56 267.12 219.56 272.786 219.56 277.379 224.153 277.379 229.819Z" fill="url(#fill50)" fill-rule="nonzero" transform="matrix(1.00211 0 0 1 108 58.8946)"/><path d="M297.21 321.119C297.21 326.548 292.809 330.949 287.381 330.949 281.952 330.949 277.551 326.548 277.551 321.119 277.551 315.691 281.952 311.29 287.381 311.29 292.809 311.29 297.21 315.691 297.21 321.119Z" fill="url(#fill51)" fill-rule="nonzero" transform="matrix(1.00211 0 0 1 108 58.8946)"/><path d="M316.269 376.106C316.269 381.535 311.868 385.936 306.439 385.936 301.01 385.936 296.609 381.535 296.609 376.106 296.609 370.677 301.01 366.276 306.439 366.276 311.868 366.276 316.269 370.677 316.269 376.106Z" fill="url(#fill52)" fill-rule="nonzero" transform="matrix(1.00211 0 0 1 108 58.8946)"/><path d="M443.583 308.242C443.583 313.671 439.183 318.072 433.754 318.072 428.325 318.072 423.924 313.671 423.924 308.242 423.924 302.813 428.325 298.412 433.754 298.412 439.183 298.412 443.583 302.813 443.583 308.242Z" fill="url(#fill53)" fill-rule="nonzero" transform="matrix(1.00211 0 0 1 108 58.8946)"/><path d="M506.168 381.085C506.168 387.296 501.133 392.331 494.921 392.331 488.71 392.331 483.675 387.296 483.675 381.085 483.675 374.874 488.71 369.839 494.921 369.839 501.133 369.839 506.168 374.874 506.168 381.085Z" fill="url(#fill54)" fill-rule="nonzero" transform="matrix(1.00211 0 0 1 108 58.8946)"/><path d="M579.225 283.002C579.225 289.213 574.19 294.249 567.979 294.249 561.768 294.249 556.733 289.213 556.733 283.002 556.733 276.791 561.768 271.756 567.979 271.756 574.19 271.756 579.225 276.791 579.225 283.002Z" fill="url(#fill55)" fill-rule="nonzero" transform="matrix(1.00211 0 0 1 108 58.8946)"/><path d="M659.795 277.207C659.795 284.296 654.049 290.042 646.961 290.042 639.872 290.042 634.126 284.296 634.126 277.207 634.126 270.119 639.872 264.373 646.961 264.373 654.049 264.373 659.795 270.119 659.795 277.207Z" fill="url(#fill56)" fill-rule="nonzero" transform="matrix(1.00211 0 0 1 108 58.8946)"/><path d="M689.284 233.854C689.284 240.231 684.115 245.4 677.738 245.4 671.36 245.4 666.191 240.231 666.191 233.854 666.191 227.476 671.36 222.307 677.738 222.307 684.115 222.307 689.284 227.476 689.284 233.854Z" fill="url(#fill57)" fill-rule="nonzero" transform="matrix(1.00211 0 0 1 108 58.8946)"/><path d="M570.34 248.19C570.34 254.567 565.17 259.737 558.793 259.737 552.416 259.737 547.247 254.568 547.247 248.19 547.247 241.813 552.416 236.644 558.793 236.644 565.17 236.644 570.34 241.813 570.34 248.19Z" fill="url(#fill58)" fill-rule="nonzero" transform="matrix(1.00211 0 0 1 108 58.8946)"/><path d="M708.042 311.118C708.042 317.495 702.873 322.665 696.496 322.665 690.118 322.665 684.949 317.495 684.949 311.118 684.949 304.741 690.118 299.571 696.496 299.571 702.873 299.571 708.042 304.741 708.042 311.118Z" fill="url(#fill59)" fill-rule="nonzero" transform="matrix(1.00211 0 0 1 108 58.8946)"/><path d="M732.982 263.171C732.982 269.548 727.812 274.718 721.435 274.718 715.058 274.718 709.888 269.548 709.888 263.171 709.888 256.794 715.058 251.624 721.435 251.624 727.812 251.624 732.982 256.794 732.982 263.171Z" fill="url(#fill60)" fill-rule="nonzero" transform="matrix(1.00211 0 0 1 108 58.8946)"/><path d="M536.301 265.317C536.301 270.746 531.9 275.147 526.471 275.147 521.042 275.147 516.641 270.746 516.641 265.317 516.641 259.889 521.042 255.488 526.471 255.488 531.9 255.488 536.301 259.889 536.301 265.317Z" fill="url(#fill61)" fill-rule="nonzero" transform="matrix(1.00211 0 0 1 108 58.8946)"/></g></g></g></g></svg>